<?xml version="1.0" encoding="UTF-8"?>
<!-- Created with Inkscape (http://www.inkscape.org/) -->
<svg width="501.12mm" height="117.12mm" version="1.1" viewBox="0 0 501.12 117.12" xmlns="http://www.w3.org/2000/svg" xmlns:xlink="http://www.w3.org/1999/xlink">
 <defs>
  <linearGradient id="linearGradient30629" x1="7546.7" x2="7546.7" y1="790.13" y2="607.46" gradientUnits="userSpaceOnUse">
   <stop stop-color="#a8ca58" offset="0"/>
   <stop stop-color="#a8ca58" stop-opacity="0" offset="1"/>
  </linearGradient>
  <linearGradient id="linearGradient30873" x1="2050" x2="2050" y1="210.39" y2="136.29" gradientUnits="userSpaceOnUse">
   <stop stop-color="#a8ca58" offset="0"/>
   <stop stop-color="#75a743" offset="1"/>
  </linearGradient>
  <linearGradient id="linearGradient1033" x1="1934.8" x2="1934.8" y1="226.57" y2="248.87" gradientUnits="userSpaceOnUse">
   <stop stop-color="#468232" offset="0"/>
   <stop stop-color="#a8ca58" offset="1"/>
  </linearGradient>
  <linearGradient id="linearGradient1501" x1="1913.3" x2="1913.3" y1="229.58" y2="245.69" gradientUnits="userSpaceOnUse">
   <stop stop-color="#468232" offset="0"/>
   <stop stop-color="#a8ca58" offset="1"/>
  </linearGradient>
 </defs>
 <g transform="translate(-1625.6 -143.02)">
  <path transform="scale(.26458)" d="m7602.5 578.35c-5.2187-2.1e-4 -9.4494 4.2305-9.4492 9.4492v138.94c-0.4105 0.0389-0.5612 0.0448-1.2911 0.12305-4.7527 0.51164-8.3748 4.4918-8.4375 9.2715l-0.086 6.7109c-0.056 4.1598 2.6146 7.867 6.5781 9.1309 2.6731 0.85181 5.5997 1.6688 8.6817 2.4629l-4.5137 12.684 1.0859 3.1094c-1.8255 0.50714-3.5916 1.021-5.2539 1.5508-3.9635 1.2638-6.6343 4.9711-6.5781 9.1309l0.086 6.709c0.063 4.7797 3.6848 8.7598 8.4375 9.2715 0.7299 0.079 0.8806 0.0837 1.2911 0.12304v138.94c-2e-4 5.2187 4.2305 9.4494 9.4492 9.4492 5.2187 2.1e-4 9.4494-4.2305 9.4492-9.4492v-58.424c0.3882 0.66262 0.7185 1.3527 1.1309 2.0039 9.7606 15.428 26.962 25.895 53.135 28.783 60.342 6.6595 114.92-5.884 146.33-28.916 23.064-16.914 41.187-40.016 60.795-62.014l15.977-13.201c4.9991 1.943 10.42 3.0215 16.082 3.0215 21.378 0 39.392-15.207 43.764-35.33h41.674c5.2187 2.1e-4 9.4494-4.2305 9.4492-9.4492 2e-4 -5.2187-4.2305-9.4494-9.4492-9.4492h-41.674c-4.3714-20.122-22.386-35.322-43.764-35.322-6.4138 0-12.524 1.3712-18.055 3.8301-25.478-25.985-46.361-56.278-74.799-77.133-25.518-18.714-66.334-30.502-113.11-30.693-10.794-0.0439-21.907 0.53058-33.221 1.7793-26.173 2.8887-101.89 47.833-53.135 28.781 0.7179-0.28056-0.7427 1.3413-1.1309 2.0039v-58.424c2e-4 -5.2187-4.2305-9.4494-9.4492-9.4492zm96.834 54.305c19.011 0.18025 36.896 2.4499 52.736 6.1953l-99.062-1.7695c4.3442-1.2472 9.3655-2.2113 15.273-2.8633 10.574-1.167 20.971-1.6581 31.053-1.5625zm-194.45 5.5488c-16.081 0-24.123 1.5267-24.123 4.5801v58.014c-5.6997-1.2214-11.297-1.832-16.793-1.832-18.931 0-34.707 6.9216-47.328 20.764-12.621 13.639-18.932 33.079-18.932 58.32 0 25.038 6.0055 44.579 18.016 58.625 12.01 14.046 26.464 21.068 43.359 21.068 16.896 0 30.941-5.3949 42.137-16.184l2.748 3.9707c1.8321 2.8498 5.2919 5.5979 10.381 8.2441 5.2925 2.6463 11.298 3.9688 18.016 3.9688 8.9567 0 15.47-4.4789 19.541-13.436 2.8499-6.5139 4.2754-12.01 4.2754-16.488 0-4.6819-0.2042-8.3459-0.6113-10.992-1.6285-9.1602-4.9872-13.74-10.076-13.74h-10.686v-31.211h33.338c5.218-8.9e-4 9.4474-4.2313 9.4472-9.4492 2e-4 -5.218-4.2292-9.4483-9.4472-9.4492h-33.338v-110.8c0-1.2214-3.6641-2.1374-10.992-2.748-7.1246-0.81424-13.436-1.2207-18.932-1.2207zm-441.83 1.832c-5.4962 0-12.723 0.40646-21.68 1.2207-8.9567 0.81424-13.638 2.3409-14.045 4.5801l-17.711 129.77-31.754-130.99c-1.0178-2.8498-8.9565-4.2754-23.816-4.2754s-22.799 1.5267-23.816 4.5801l-32.367 130.07-14.961-128.55c-0.6107-3.8676-12.622-5.8027-36.031-5.8027-21.17 0-31.45 1.1202-30.84 3.3594l31.451 203.05c0.8142 3.6641 7.938 6.2098 21.373 7.6348l19.543 0.91601c6.921 0 13.841-0.30533 20.762-0.91601 13.435-1.6285 20.561-4.2754 21.375-7.9395l22.596-83.664 20.762 83.969c1.2214 5.6997 14.454 8.5508 39.695 8.5508 6.7175 0 15.471-0.71375 26.26-2.1387s16.59-3.6634 17.404-6.7168l36.945-202.44c0.6107-2.8498-9.7707-4.2734-31.144-4.2734zm-680.91 0.60937c-16.081 0-24.121 1.5267-24.121 4.5801v204.27c0 3.6641 9.3623 5.4961 28.09 5.4961 18.931 0 28.398-1.832 28.398-5.4961v-94.961l50.99 95.266c1.6285 3.0534 12.012 4.5801 31.146 4.5801 19.135 0 28.701-2.1374 28.701-6.4121v-201.22c0-3.8676-9.4653-5.8008-28.396-5.8008-18.931 0-28.396 1.9331-28.396 5.8008v95.877l-48.856-94.045c-1.832-3.0534-7.0227-5.0896-15.572-6.1074-8.3459-1.2214-15.674-1.832-21.984-1.832zm1255.4 3.9961-22.205 62.381c0.2412-2.6923 0.4465-4.8773 0.5274-5.3867 3.2107-20.249 6.3531-36.573 13.146-47.311 2.3382-3.6958 5.0663-6.923 8.5312-9.6836zm134.44 0.0723c11.753 4.2088 21.735 9.2881 29.354 14.875 9.1155 6.6849 17.661 15.027 26.199 24.258zm-1021.3 24.328c-17.099 0-25.648 2.0362-25.648 6.1074v26.869h-16.184c-2.2392 0-3.7659 2.6469-4.5801 7.9394-0.6107 5.2926-0.916 9.7715-0.916 13.436 0 14.046 2.0362 21.068 6.1074 21.068h15.572v108.09c0 1.832 10.179 3.1565 30.535 3.9707 17.099 0 25.648-1.2213 25.648-3.6641v-108.09h21.678c3.4605 0 5.1914-7.1238 5.1914-21.373s-1.7309-21.375-5.1914-21.375h-25.953l-0.3046-8.5488v-19.541c0-3.257-8.6525-4.8867-25.955-4.8867zm-499.54 21.459c-14.069 0-21.104 1.2373-21.104 3.7109v58.766h-38.728c-5.2188-3.8e-4 -9.4496 4.2304-9.4492 9.4492-4e-4 5.2188 4.2304 9.4496 9.4492 9.4492h38.728v81.422c0 1.8552 6.7253 2.7832 20.176 2.7832 13.605 0 20.406-1.0058 20.406-3.0156v-51.25l22.959 51.482c1.0823 1.3914 9.0448 2.0879 23.887 2.0879 4.0197 0 9.0447-0.2315 15.074-0.69531 6.1841-0.30921 9.1217-0.77417 8.8125-1.3926l-34.787-65.164 30.148-49.164c-3.4013-1.546-11.13-2.3203-23.19-2.3203-12.059 0-18.631 1.1595-19.713 3.4785l-22.959 42.439v-89.053c0-1.546-6.5697-2.5499-19.711-3.0137zm367.93 8.4648c-21.577 0-38.777 7.0227-51.602 21.068-12.621 14.046-18.932 33.486-18.932 58.32s6.3109 44.275 18.932 58.32c12.824 14.046 30.024 21.068 51.602 21.068s38.678-7.0227 51.299-21.068c12.621-14.046 18.93-33.486 18.93-58.32s-6.3089-44.275-18.93-58.32c-12.621-14.046-29.722-21.068-51.299-21.068zm552.36 0c-20.356 0-37.251 7.4311-50.686 22.291-13.232 14.86-19.848 34.502-19.848 58.93 0 24.224 6.9216 43.258 20.764 57.1 13.842 13.639 30.84 20.457 50.992 20.457 20.152 0 36.64-3.7651 49.465-11.297 3.8676-1.832 5.8008-5.7003 5.8008-11.604 0-6.1068-2.4427-13.536-7.3281-22.289-1.6285-3.0534-2.5445-4.479-2.7481-4.2754-12.824 6.5139-26.36 9.7715-40.609 9.7715-6.5139 0-11.502-1.1202-14.963-3.3594-3.2569-2.4427-4.8847-6.7174-4.8847-12.824h21.068c37.862 0 56.793-16.488 56.793-49.465 0-14.86-5.5971-27.482-16.793-37.863-10.992-10.382-26.667-15.572-47.023-15.572zm148.39 0c-20.356 0-37.25 7.4311-50.686 22.291-13.231 14.86-19.848 34.502-19.848 58.93 0 24.224 6.9216 43.258 20.764 57.1 13.842 13.639 30.84 20.457 50.992 20.457s36.64-3.7651 49.465-11.297c3.8677-1.832 5.8008-5.7003 5.8008-11.604 0-6.1068-2.4427-13.536-7.3281-22.289-1.6285-3.0534-2.5445-4.479-2.7481-4.2754-12.824 6.5139-26.36 9.7715-40.609 9.7715-6.514 0-11.502-1.1202-14.963-3.3594-3.257-2.4427-4.8848-6.7174-4.8848-12.824h21.068c37.862 0 56.793-16.488 56.793-49.465 0-14.86-5.5971-27.482-16.793-37.863-10.992-10.382-26.667-15.572-47.024-15.572zm585.55 37.588c12.318 0 22.469 8.3997 25.158 19.838l-27.947-19.686c0.9162-0.0961 1.8452-0.15234 2.789-0.15234zm-733.95 8.8242c8.346 0 12.52 4.2747 12.52 12.824 0 6.9211-3.3587 10.381-10.076 10.381h-16.488v-9.4648c0-4.4783 1.3224-7.837 3.9687-10.076 2.8499-2.4427 6.2086-3.6641 10.076-3.6641zm148.39 0c8.346 0 12.52 4.2747 12.52 12.824 0 6.9211-3.3587 10.381-10.076 10.381h-16.488v-9.4648c0-4.4783 1.3225-7.837 3.9688-10.076 2.8498-2.4427 6.2085-3.6641 10.076-3.6641zm150.84 2.4434c3.257 0 6.6157 1.0171 10.076 3.0527v51.908c-3.6641 3.4605-7.5304 5.1895-11.602 5.1895-3.8676 0-7.4305-2.2385-10.688-6.7168-3.2569-4.6819-4.8847-12.214-4.8847-22.596 0-20.56 5.6982-30.838 17.098-30.838zm-851.59 2.1367c11.603 0 17.404 9.3642 17.404 28.092s-5.8013 28.09-17.404 28.09c-11.399 0-17.098-9.3623-17.098-28.09s5.6982-28.092 17.098-28.092zm1310.9 20.637c-3.0422 9.2906-11.146 16.164-21.135 17.465zm-311.45 66.773 11.924 34.141c-0.4803-0.6775-0.9463-1.3705-1.3964-2.082-4.9889-7.8852-8.0035-18.805-10.527-32.059zm25.16 45.67 90.322 5.334c-20.071 3.0178-42.465 3.7288-65.721 1.1621-10.727-1.1837-18.569-3.3765-24.602-6.4961z" fill="#394a50" stroke="#394a50" stroke-linejoin="round" stroke-width="75.591"/>
  <g transform="rotate(-90 1631.6 -271.42)">
   <path d="m1191.7 118.47-34.466-12.268-30.523 10.661-2.3367 39.578 34.028 41.184 32.714-46.442z" fill="#202e37"/>
   <path transform="matrix(0 .26458 -.26458 0 1842.3 -1051.2)" d="m4382.9 2400.5a9.4488 9.4488 0 0 0-9.4492 9.4492v138.94c-0.4105 0.039-0.5615 0.045-1.2911 0.1231a9.4498 9.4498 0 0 0-8.4375 9.2715l-0.088 6.7109a9.4498 9.4498 0 0 0 6.5781 9.1309c12.013 3.8279 28.512 7.0449 46.277 9.9004-17.766 2.8569-34.265 6.0779-46.277 9.9062a9.4498 9.4498 0 0 0-6.5781 9.1309l0.088 6.709a9.4498 9.4498 0 0 0 8.4375 9.2714c0.7297 0.079 0.8805 0.084 1.2911 0.1231v138.94a9.4488 9.4488 0 0 0 9.4492 9.4492 9.4488 9.4488 0 0 0 9.4492-9.4492v-58.424c0.3879 0.6626 0.7188 1.3527 1.1309 2.0039 9.7607 15.428 26.961 25.894 53.135 28.783 60.342 6.6595 114.92-5.884 146.33-28.916 28.158-20.65 48.912-50.551 74.051-76.365 5.7253 2.6736 12.098 4.1719 18.803 4.1719 21.378 0 39.392-15.207 43.764-35.33h41.674a9.4488 9.4488 0 0 0 9.4492-9.4492 9.4488 9.4488 0 0 0-9.4492-9.4492h-41.674c-4.3713-20.122-22.386-35.322-43.764-35.322-6.4139 0-12.524 1.3712-18.055 3.8301-25.478-25.985-46.361-56.278-74.799-77.133-25.517-18.714-66.334-30.502-113.11-30.693-10.794-0.044-21.907 0.5307-33.221 1.7793-26.173 2.8887-43.374 13.354-53.135 28.781-0.4121 0.6512-0.743 1.3413-1.1309 2.0039v-58.424a9.4488 9.4488 0 0 0-9.4492-9.4492zm96.834 54.305c43.686 0.4142 81.45 11.837 102.04 26.934 24.002 17.602 44.048 46.653 70.428 73.34-6.9431 7.8936-11.17 18.228-11.17 29.498 0 10.991 4.0213 21.091 10.66 28.908-26.128 26.547-46.071 55.34-69.918 72.828-25.336 18.581-76.694 31.595-133.09 25.371-22.526-2.4858-32.441-9.3701-39.234-20.107s-9.9356-27.061-13.146-47.31c-0.2824-1.7813-1.999-22.528-1.9942-22.92 0.044-3.5629-0.2268-6.6963-1.3203-9.8261-0.1386-0.3968-0.3738-0.7407-0.6367-1.0723v-2.4668c28.447-6.4238 71.288-11.855 108.21-14.531a9.4498 9.4498 0 0 0 0-18.854c-36.918-2.676-79.759-8.1034-108.21-14.525v-2.4668c0.2629-0.3316 0.4981-0.6755 0.6367-1.0722 1.0936-3.1298 1.3642-6.2613 1.3203-9.8242 0-0.3924 1.7117-21.141 1.9942-22.922 3.2109-20.249 6.3531-36.573 13.146-47.311 6.7933-10.737 16.709-17.622 39.234-20.107 10.574-1.167 20.971-1.6581 31.053-1.5625zm21.266 28.559a9.4488 9.4488 0 0 0-1.8281 0.2832c-37.416 9.6295-65.248 32.279-79.106 51.658a9.4488 9.4488 0 0 0-1.6309 7.0488 9.4488 9.4488 0 0 0 3.8243 6.1348 9.4488 9.4488 0 0 0 13.184-2.1933c10.789-15.088 35.917-35.98 68.437-44.35a9.4488 9.4488 0 0 0 6.7911-11.508 9.4488 9.4488 0 0 0-9.6719-7.0742zm63.344 23.27c-35.372-0.2295-63.726 13.423-77.142 32.186a9.4488 9.4488 0 0 0-1.6309 7.041 9.4488 9.4488 0 0 0 3.8223 6.1426 9.4488 9.4488 0 0 0 13.186-2.1934c9.3138-13.025 38.353-27.752 75.125-23.43a9.4488 9.4488 0 0 0 10.482-8.2812 9.4488 9.4488 0 0 0-8.2754-10.49c-5.3164-0.6249-10.513-0.9418-15.566-0.9746zm31.574 36.211c-15.296 0.1696-29.717 4.6283-41.846 14.406a9.4488 9.4488 0 0 0-1.4258 13.287 9.4488 9.4488 0 0 0 13.281 1.4258c12.187-9.8245 26.544-12.341 44.697-8.8515a9.4488 9.4488 0 0 0 11.064-7.5 9.4488 9.4488 0 0 0-7.5-11.059c-6.1679-1.1857-12.286-1.7754-18.271-1.709zm89.881 15.859c14.404 0 25.881 11.469 25.881 25.873s-11.477 25.881-25.881 25.881c-14.404 0-25.873-11.477-25.873-25.881s11.469-25.873 25.873-25.873zm-396.32 16.424a9.4488 9.4488 0 0 0-9.4493 9.4492 9.4488 9.4488 0 0 0 9.4493 9.4492h59.062a9.4488 9.4488 0 0 0 9.4472-9.4492 9.4488 9.4488 0 0 0-9.4472-9.4492zm270.99 19.988a9.4488 9.4488 0 0 0-7.8261 3.5039 9.4488 9.4488 0 0 0 1.4258 13.287c16.875 13.604 38.187 16.913 60.117 12.697a9.4488 9.4488 0 0 0 7.5-11.058 9.4488 9.4488 0 0 0-11.064-7.5c-18.153 3.4896-32.51 0.9733-44.697-8.8516a9.4488 9.4488 0 0 0-5.4551-2.0781zm-65.881 20.281a9.4488 9.4488 0 0 0-5.1992 1.7578 9.4488 9.4488 0 0 0-3.8223 6.1348 9.4488 9.4488 0 0 0 1.6309 7.0488c15.333 21.442 50.178 36.21 92.709 31.211a9.4488 9.4488 0 0 0 8.2754-10.488 9.4488 9.4488 0 0 0-10.482-8.2832c-36.772 4.3222-65.811-10.405-75.125-23.43a9.4488 9.4488 0 0 0-7.9863-3.9512zm-67.135 3.5137a9.4488 9.4488 0 0 0-5.1972 1.7578 9.4488 9.4488 0 0 0-3.8243 6.1348 9.4488 9.4488 0 0 0 1.6309 7.0488c13.858 19.38 41.69 42.03 79.106 51.66a9.4488 9.4488 0 0 0 11.5-6.7929 9.4488 9.4488 0 0 0-6.7911-11.508c-32.52-8.3698-57.648-29.261-68.437-44.35a9.4488 9.4488 0 0 0-7.9864-3.9512z" color="#000000" fill="#75a743" stroke="#202e37" stroke-linecap="round" stroke-linejoin="round" stroke-width="37.795" style="paint-order:stroke fill markers"/>
  </g>
  <g>
   <path d="m1638.1 199.23c-1.3808-1e-4 -2.5002 1.1193-2.5001 2.5001-1e-4 1.3808 1.1193 2.5002 2.5001 2.5001h15.627c1.3806-2e-4 2.4996-1.1195 2.4995-2.5001 1e-4 -1.3806-1.1189-2.4999-2.4995-2.5001z" color="#000000" fill="#75a743" stroke="#202e37" stroke-linecap="round" stroke-linejoin="round" stroke-width="10" style="paint-order:stroke fill markers"/>
   <path d="m1915.1 229.77c2.6674 4.6818 7.7547 13.584 8.6241 14.972-0.8694-1.388-6.6581-9.8502-9.7064-14.293l-0.1714 0.11584c0.2318 0.47725 0.219 0.89297-0.5347 1.387-4.1918 2.7478-7.0058 6.239-2.4744 12.271 3.0452 4.054 5.0757 5.982 7.6913 7.3409 2.9534 1.5344 7.1402 0.4567 11.292 2.9105-0.396-4.8062 2.4009-8.1028 2.3094-11.43-0.081-2.9464-0.9302-5.6144-3.2487-10.124-3.4497-6.7097-7.8184-5.7019-12.12-3.1295-0.7734 0.46251-1.1532 0.29262-1.4812-0.12432z" fill="url(#linearGradient1033)" stroke="#394a50" stroke-width="5.2917" style="paint-order:stroke fill markers"/>
   <path d="m1906 232.43c-1.337 3.2772-3.8727 9.5163-4.2372 10.528 0.3645-1.0122 2.3886-7.4354 3.4478-10.813l-0.1294-0.0416c-0.1525 0.31334-0.3725 0.47537-0.9334 0.28635-3.12-1.0512-6.0652-1.089-7.3438 3.699-0.8594 3.2178-1.0319 5.0489-0.6731 6.9514 0.4052 2.1483 2.6602 3.8743 3.0764 7.0146 2.3225-2.1541 5.1603-2.0462 6.8421-3.443 1.4893-1.237 2.5234-2.7579 3.9128-5.7848 2.0674-4.504-0.2253-6.3523-3.2992-7.5315-0.5527-0.21198-0.619-0.47714-0.5366-0.81573z" fill="url(#linearGradient1501)" stroke="#394a50" stroke-width="5.2917" style="paint-order:stroke fill markers"/>
  </g>
  <text x="1645.595" y="226.13692" fill="#75a743" font-family="'Lilita One'" font-size="80.788px" stroke="#202e37" stroke-width="12.078" style="line-height:1.25;paint-order:stroke fill markers" xml:space="preserve"><tspan x="1645.595" y="226.13692" fill="#75a743" font-size="80.788px" stroke="#202e37" stroke-width="12.078" style="paint-order:stroke fill markers"><tspan fill="#75a743" font-size="61.358px" stroke-width="12.078">k</tspan>NotWeed</tspan></text>
  <g>
   <path d="m2017.5 169.01-6.2218 26.904 11.333 5.5904-11.047 5.4795 0.3125 15.551 10.851 13.601 36.759-0.3106 26.303-24.883-2.9361-9.364 3.8976-8.7167-17.087-17.705-24.928-10.382z" fill="url(#linearGradient30873)"/>
   <path d="m2011.5 153.02c-1.3807-6e-5 -2.5001 1.1193-2.5001 2.5001v36.761c-0.1086 0.0103-0.1485 0.0119-0.3416 0.0326-1.2574 0.13536-2.2158 1.1885-2.2324 2.4531l-0.023 1.7756c-0.015 1.1006 0.6918 2.0815 1.7405 2.4159 3.1783 1.0128 7.5439 1.864 12.244 2.6195-4.7006 0.75589-9.0659 1.6081-12.244 2.621-1.0487 0.33438-1.7553 1.3153-1.7405 2.4159l0.023 1.7751c0.017 1.2646 0.975 2.3177 2.2324 2.4531 0.1931 0.0209 0.233 0.0222 0.3416 0.0326v36.761c0 1.3808 1.1194 2.5002 2.5001 2.5001 1.3808 5e-5 2.5002-1.1193 2.5001-2.5001v-15.458c0.1027 0.17532 0.1902 0.35791 0.2993 0.5302 2.5825 4.0819 7.1335 6.8513 14.058 7.6156 15.965 1.762 30.407-1.5568 38.716-7.6507 7.4501-5.4637 12.941-13.375 19.593-20.205 1.5148 0.70739 3.2011 1.1038 4.9749 1.1038 5.6562 0 10.422-4.0235 11.579-9.3478h11.026c1.3808 5e-5 2.5002-1.1193 2.5001-2.5001 1e-4 -1.3808-1.1193-2.5002-2.5001-2.5001h-11.026c-1.1566-5.324-5.923-9.3457-11.579-9.3457-1.697 0-3.3137 0.36279-4.777 1.0134-6.7411-6.8753-12.266-14.89-19.79-20.408-6.7515-4.9513-17.551-8.0704-29.927-8.121-2.856-0.0116-5.7962 0.14042-8.7897 0.47078-6.925 0.7643-11.476 3.5331-14.058 7.615-0.1091 0.17229-0.1966 0.35488-0.2993 0.5302v-15.458c1e-4 -1.3808-1.1193-2.5002-2.5001-2.5001zm25.621 14.368c11.559 0.10959 21.55 3.1319 26.997 7.1262 6.3505 4.6572 11.654 12.344 18.634 19.405-1.837 2.0885-2.9554 4.8228-2.9554 7.8047 0 2.9081 1.064 5.5804 2.8205 7.6486-6.9131 7.0239-12.19 14.642-18.499 19.269-6.7035 4.9161-20.292 8.3596-35.213 6.7128-5.96-0.6577-8.5834-2.4792-10.381-5.3201s-2.6288-7.16-3.4783-12.518c-0.075-0.47131-0.5289-5.9605-0.5277-6.0642 0.012-0.94269-0.06-1.7717-0.3493-2.5998-0.037-0.10498-0.099-0.19597-0.1685-0.28371v-0.65267c7.5266-1.6996 18.862-3.1367 28.629-3.8447 1.31-0.0916 2.3259-1.181 2.3259-2.4942 0-1.3132-1.0159-2.4026-2.3259-2.4941-9.7679-0.70803-21.103-2.144-28.629-3.8432v-0.65268c0.07-0.0877 0.1318-0.17872 0.1685-0.28368 0.2894-0.8281 0.3609-1.6566 0.3493-2.5993 0-0.10383 0.4529-5.5934 0.5277-6.0648 0.8495-5.3576 1.6809-9.6767 3.4783-12.518 1.7974-2.8409 4.4208-4.6624 10.381-5.3201 2.7976-0.30877 5.5486-0.43871 8.216-0.41342zm5.6265 7.5561c-0.1633 9e-3 -0.3253 0.0342-0.4837 0.0749-9.8996 2.5478-17.264 8.5404-20.93 13.668-0.3855 0.5398-0.5408 1.2107-0.4315 1.865 0.1088 0.65378 0.4728 1.2376 1.0119 1.6232 1.1234 0.80322 2.6853 0.54338 3.4881-0.58031 2.8547-3.9921 9.5031-9.5197 18.107-11.734 1.337-0.34465 2.1414-1.7078 1.7969-3.0448-0.2978-1.1542-1.3689-1.9376-2.5591-1.8717zm16.76 6.1567c-9.3588-0.0607-16.861 3.5516-20.411 8.5158-0.385 0.53925-0.5402 1.2093-0.4315 1.8629 0.1081 0.65445 0.4719 1.2391 1.0113 1.6252 1.1235 0.80357 2.6858 0.54366 3.4887-0.58034 2.4642-3.4462 10.148-7.3427 19.877-6.1991 1.3708 0.16042 2.6123-0.82036 2.7735-2.1911 0.1616-1.371-0.8186-2.6136-2.1896-2.7756-1.4066-0.16534-2.7816-0.24919-4.1186-0.25787zm8.354 9.5808c-4.0469 0.0449-7.8625 1.2246-11.072 3.8116-1.0751 0.86659-1.244 2.4406-0.3773 3.5156 0.8665 1.074 2.4393 1.2429 3.514 0.37724 3.2246-2.5994 7.0232-3.2652 11.826-2.342 1.3564 0.26088 2.6674-0.62775 2.9274-1.9844 0.26-1.3559-0.6284-2.6659-1.9843-2.9259-1.632-0.31371-3.2508-0.46974-4.8344-0.45217zm23.781 4.1961c3.811 0 6.8477 3.0346 6.8477 6.8456 0 3.811-3.0367 6.8476-6.8477 6.8476s-6.8456-3.0366-6.8456-6.8476c0-3.811 3.0346-6.8456 6.8456-6.8456zm-33.159 9.634c-0.7988-0.04-1.5685 0.30461-2.0707 0.92707-0.8667 1.075-0.6978 2.649 0.3773 3.5156 4.4649 3.5994 10.104 4.4748 15.906 3.3595 1.3558-0.26006 2.2442-1.57 1.9843-2.9259-0.26-1.3566-1.571-2.2452-2.9274-1.9844-4.803 0.92329-8.6016 0.25751-11.826-2.342-0.411-0.33102-0.9162-0.52348-1.4433-0.54983zm-17.431 5.3661c-0.4944 0.0156-0.9732 0.17737-1.3756 0.46508-0.5389 0.38563-0.9026 0.96946-1.0113 1.6232-0.1093 0.65429 0.046 1.3252 0.4315 1.865 4.0569 5.6733 13.276 9.5806 24.529 8.2579 1.3708-0.16195 2.351-1.4042 2.1896-2.775-0.161-1.3709-1.4025-2.352-2.7735-2.1916-9.7293 1.1436-17.413-2.7529-19.877-6.1991-0.4855-0.67956-1.2783-1.0718-2.1131-1.0454zm-17.763 0.92966c-0.4943 0.0156-0.9728 0.17746-1.3751 0.46509-0.5391 0.38555-0.9031 0.96938-1.0119 1.6232-0.1093 0.65429 0.046 1.3252 0.4315 1.865 3.6665 5.1275 11.03 11.121 20.93 13.668 1.3365 0.34322 2.6983-0.46117 3.0428-1.7973 0.3445-1.337-0.4599-2.7001-1.7969-3.0448-8.6043-2.2145-15.253-7.742-18.107-11.734-0.4855-0.67956-1.2783-1.0718-2.113-1.0454z" color="#000000" fill="#75a743" style="paint-order:stroke fill markers"/>
   <path transform="scale(.26458)" d="m7504.8 647.65c-6.731 0-11.535 0.35157-14.672 0.79687v52.348a9.4498 9.4498 0 0 1-11.432 9.2383c-5.0914-1.091-10.016-1.6211-14.812-1.6211-16.628 0-29.31 5.5758-40.346 17.68a9.4498 9.4498 0 0 1-0.045 0.0527c-10.647 11.506-16.418 28.236-16.418 51.902 0 23.527 5.5403 40.546 15.748 52.484 10.588 12.382 21.9 17.76 36.178 17.76 14.884 0 26.095-4.3982 35.58-13.539a9.4498 9.4498 0 0 1 14.326 1.4277l2.7481 3.9707a9.4498 9.4498 0 0 1 0.1777 0.26758c0.3972 0.61745 2.5151 2.7211 6.7168 4.9219 3.8494 1.9141 8.2793 2.9512 13.732 2.9512 5.7846 0 7.9325-1.3197 10.906-7.8359 2.5081-5.7512 3.4609-10.176 3.4609-12.639 0-4.3639-0.2202-7.6294-0.4961-9.4609-0.5934-3.2461-1.4086-5.0964-1.8281-5.8223h-9.5996a9.4498 9.4498 0 0 1-9.4493-9.4492v-153.94c-0.924-0.11263-1.1515-0.21265-2.3281-0.31054a9.4498 9.4498 0 0 1-0.2871-0.0274c-6.8515-0.78296-12.829-1.1602-17.859-1.1602zm-441.82 1.832c-5.0306 0-12.042 0.38321-20.824 1.1816-3.0943 0.28127-4.6714 0.6645-6.1601 1.0039l-17.09 125.21a9.4498 9.4498 0 0 1-18.545 0.94921l-30.807-127.09c-0.095-0.0189-0.054-0.0182-0.1524-0.0371-2.9605-0.53148-8.3018-0.91992-15.43-0.91992-7.1063 0-12.419 0.41778-15.314 0.9746-0.1587 0.0321-0.091 0.0323-0.2344 0.0625l-31.465 126.45a9.4498 9.4498 0 0 1-18.555-1.1894l-14.449-124.16c-0.7495-0.19593-0.8991-0.3131-2.0957-0.50586-5.054-0.814-13.618-1.3301-25.062-1.3301-9.0773 0-15.64 0.25775-20.236 0.63672l29.736 191.97c0.1663 0.0752-0.011 0.0183 0.2461 0.10938 2.2945 0.81966 6.8688 1.7888 13.082 2.457l18.801 0.88086c6.5586-3e-3 13.116-0.29466 19.678-0.86914 6.2177-0.76275 10.799-1.7977 13.115-2.6582 0.6562-0.24378 0.5089-0.21202 0.6563-0.31445l22.062-81.688a9.4498 9.4498 0 0 1 18.293 0.19531l20.295 82.078c0.6852 0.32421 1.8263 0.83883 4.125 1.334 5.407 1.1648 14.6 1.9258 26.865 1.9258 6.048 0 14.486-0.66494 25.024-2.0566 4.7353-0.62543 8.1141-1.4477 9.9004-2.0898l34.988-191.71c-4.5139-0.47996-11.189-0.81445-20.447-0.81445zm-680.91 0.60937c-6.7298 8e-5 -11.534 0.35166-14.67 0.79688v193.53c3.6189 0.64573 9.9511 1.127 18.639 1.127 8.8294 0 15.28-0.48421 18.951-1.1387v-89.869a9.4498 9.4498 0 0 1 17.779-4.459l49.836 93.107c0.7098 0.20655 1.5221 0.4552 3.2071 0.70312 4.3644 0.64181 11.448 1.0449 20.764 1.0449 9.0849 0 15.732-0.58726 19.25-1.3477v-191.98c-3.6038-0.68689-10.079-1.2031-18.947-1.2031-8.8676 0-15.342 0.51624-18.945 1.2031v91.025a9.4498 9.4498 0 0 1-17.834 4.3555l-48.537-93.434c0.9814 1.7182-1.3558-0.82627-8.6231-1.6914a9.4498 9.4498 0 0 1-0.2539-0.0332c-8.0072-1.1718-14.913-1.7323-20.613-1.7324zm368.54 28.396c-7.6449 0-13.123 0.52478-16.199 1.1543v22.373a9.4498 9.4498 0 0 1-9.4512 9.4492h-11.404c-0.5409 4.8132-0.8242 8.8948-0.8242 11.926 0 5.5126 0.4408 9.2913 0.9023 11.619h11.326a9.4498 9.4498 0 0 1 9.4512 9.4492v101.13c4.5316 0.56677 11.641 1.089 21.289 1.4785 7.214-5e-3 12.463-0.28438 15.996-0.67383v-101.63a9.4498 9.4498 0 0 1 9.4492-9.4492h16.646c0.4105-2.5561 0.7735-6.402 0.7735-11.924 0-5.5222-0.3623-9.3692-0.7735-11.926h-20.922a9.4498 9.4498 0 0 1-9.4433-9.1133l-0.3067-8.5488a9.4498 9.4498 0 0 1 0-0.33594v-14.053c-3.3879-0.52441-8.8814-0.92578-16.506-0.92578zm-499.72 21.465c-5.0913 6e-3 -8.7509 0.23477-11.467 0.52344v145.68c2.7288 0.23184 5.6843 0.4707 10.728 0.4707 5.17 0 8.2213-0.25893 10.955-0.51367v-44.303a9.4498 9.4498 0 0 1 18.078-3.8477l21.127 47.375c0.3549 0.0401 0.3948 0.0696 0.8105 0.10742 3.4738 0.30376 9.0064 0.48633 16.279 0.48633 2.2991 0 5.832-0.24417 9.0234-0.41992l-28.26-52.934a9.4498 9.4498 0 0 1 0.2812-9.3887l22.486-36.67c-2.4824-0.16728-4.3996-0.42578-7.4727-0.42578-5.7267 0-10.019 0.31676-12.33 0.72461-0.2154 0.0363-0.1251 0.0314-0.3027 0.0703l-21.73 40.17a9.4498 9.4498 0 0 1-17.76-4.4961v-81.85c-2.6863-0.2898-5.6-0.58708-10.443-0.76172zm368.12 8.459c-19.512 0-33.556 5.8859-44.598 17.965-10.753 11.984-16.486 28.76-16.486 51.975 0 23.214 5.7332 39.99 16.486 51.975 11.041 12.079 25.085 17.965 44.598 17.965 19.527 0 33.44-5.8795 44.272-17.934 10.77-11.986 16.508-28.772 16.508-52.006s-5.7377-40.02-16.508-52.006c-10.831-12.054-24.744-17.934-44.272-17.934zm552.36 0c-18.045 0-31.815 6.0725-43.652 19.154-11.506 12.936-17.432 29.913-17.432 52.617 0 22.414 6.0988 38.51 17.982 50.402 12.201 12.005 26.321 17.705 44.324 17.705 18.975 0 33.719-3.559 44.68-9.9961a9.4498 9.4498 0 0 1 0.7403-0.39063c0.3171-0.15072 0.3965 0.77593 0.3965-3.0644 0-3.0862-1.3783-8.1628-4.5508-14.551-11.702 4.701-23.989 7.207-36.686 7.207-7.5972 0-14.365-1.1669-20.096-4.875a9.4498 9.4498 0 0 1-0.5371-0.375c-6.2808-4.7108-8.664-12.597-8.664-20.383a9.4498 9.4498 0 0 1 9.4492-9.4492h21.068c17.56 0 29.276-3.8479 36.389-10.043 7.1131-6.1951 10.955-15.292 10.955-29.973 0-12.487-4.2201-22.083-13.768-30.936a9.4498 9.4498 0 0 1-0.064-0.0586c-8.8755-8.3822-21.785-12.992-40.535-12.992zm148.39 0c-18.045 0-31.814 6.0724-43.652 19.154-11.505 12.936-17.432 29.913-17.432 52.617 0 22.414 6.0989 38.51 17.982 50.402 12.201 12.005 26.321 17.705 44.324 17.705 18.976 0 33.719-3.559 44.68-9.9961a9.4498 9.4498 0 0 1 0.7402-0.39063c0.3171-0.15072 0.3965 0.77604 0.3965-3.0644 0-3.0862-1.3783-8.1628-4.5508-14.551-11.702 4.701-23.989 7.207-36.686 7.207-7.5976 0-14.365-1.1668-20.096-4.875a9.4498 9.4498 0 0 1-0.5371-0.375c-6.2809-4.7107-8.6641-12.597-8.6641-20.383a9.4498 9.4498 0 0 1 9.4492-9.4492h21.068c17.56 0 29.276-3.8479 36.389-10.043 7.1127-6.1951 10.955-15.292 10.955-29.973 0-12.487-4.2205-22.083-13.768-30.936a9.4498 9.4498 0 0 1-0.064-0.0586c-8.8755-8.3822-21.785-12.992-40.535-12.992zm-148.39 27.514c5.7865 0 11.864 1.6643 16.15 6.0547 4.286 4.3903 5.8183 10.406 5.8183 16.219 0 4.989-1.3153 10.378-5.1875 14.367-3.8725 3.9892-9.3568 5.4629-14.338 5.4629h-16.488a9.4498 9.4498 0 0 1-9.4492-9.4492v-9.4648c0-6.3298 2.2927-13.023 7.2968-17.27 4.4504-3.8034 10.352-5.9199 16.197-5.9199zm148.39 0c5.7865 0 11.864 1.6644 16.15 6.0547 4.286 4.3903 5.8184 10.406 5.8184 16.219 0 4.989-1.3154 10.378-5.1875 14.367-3.8725 3.9892-9.3569 5.4629-14.338 5.4629h-16.488a9.4498 9.4498 0 0 1-9.4492-9.4492v-9.4648c0-6.33 2.2931-13.023 7.2969-17.27 4.4507-3.8036 10.352-5.9199 16.197-5.9199zm150.84 2.4434c5.2245 0 10.289 1.6645 14.867 4.3574a9.4498 9.4498 0 0 1 4.6582 8.1445v51.908a9.4498 9.4498 0 0 1-2.9609 6.8691c-4.9342 4.66-11.343 7.7695-18.09 7.7695-7.5133 0-14.026-4.6914-18.33-10.609a9.4498 9.4498 0 0 1-0.1132-0.16016c-5.1273-7.3702-6.5782-16.623-6.5782-27.992 0-11.153 1.3144-20.235 5.459-27.711 4.145-7.476 12.548-12.576 21.088-12.576zm-851.59 2.1367c8.3437 0 16.7 4.4168 21.086 11.496 4.3861 7.0794 5.7675 15.705 5.7675 26.045s-1.381 18.966-5.7675 26.045c-4.3862 7.079-12.743 11.494-21.086 11.494-8.2862 0-16.59-4.4871-20.894-11.559-4.3041-7.0716-5.6524-15.658-5.6524-25.98 0-10.322 1.3483-18.909 5.6524-25.98 4.3037-7.0719 12.608-11.561 20.894-11.561zm-320.9 104.29c-0.4884-0.15891-0.5613 0.1614-0.3652 0.20703 0.099 0.0231 0.6493 0.0773 0.8496 0.11133-0.1553-0.0954-0.3725-0.27985-0.4824-0.31836z" fill="url(#linearGradient30629)" style="paint-order:stroke fill markers"/>
  </g>
 </g>
</svg>
