<?xml version="1.0" encoding="UTF-8"?>
<!-- Created with Inkscape (http://www.inkscape.org/) -->
<svg width="501.12mm" height="117.12mm" version="1.1" viewBox="0 0 501.12 117.12" xmlns="http://www.w3.org/2000/svg" xmlns:xlink="http://www.w3.org/1999/xlink">
 <defs>
  <linearGradient id="linearGradient30873" x1="2050" x2="2050" y1="210.39" y2="136.29" gradientUnits="userSpaceOnUse">
   <stop stop-color="#a8ca58" offset="0"/>
   <stop stop-color="#75a743" offset="1"/>
  </linearGradient>
  <linearGradient id="linearGradient1033" x1="1934.8" x2="1934.8" y1="226.57" y2="248.87" gradientTransform="matrix(3.7795 0 0 3.7795 -6144 -540.55)" gradientUnits="userSpaceOnUse">
   <stop stop-color="#468232" offset="0"/>
   <stop stop-color="#a8ca58" offset="1"/>
  </linearGradient>
  <linearGradient id="linearGradient1358" x1="7546.7" x2="7546.7" y1="790.13" y2="607.46" gradientTransform="matrix(.99999 0 0 .99999 -6144 -540.55)" gradientUnits="userSpaceOnUse">
   <stop stop-color="#a8ca58" offset="0"/>
   <stop stop-color="#a8ca58" stop-opacity="0" offset="1"/>
  </linearGradient>
 </defs>
 <g transform="translate(-1625.6 -143.02)">
  <path transform="matrix(.26458 0 0 .26458 1625.6 143.02)" d="m1458.4 0c-25.641 0.0056488-47.236 21.604-47.234 47.246v22.377c-0.6766-0.4591-1.5339-1.1833-2.0899-1.5078-5.8711-3.4248-9.1059-4.0554-11.939-4.7637-5.2532-1.3133-9.0172-1.6818-13.281-2.043-8.1437-0.92598-15.734-1.4501-23.035-1.4512l-0.039-0.0039c-9.2364 0-16.586 0.18408-25.143 1.8086-4.2784 0.81226-8.8938 1.5732-16.176 5.7207-7.282 4.1475-20.6 17.49-20.6 34.844v20.645c-18.073 3.8823-35.087 12.715-48.596 25.277-0.5767-0.56916-1.1018-1.1968-1.6933-1.748-19.45-18.299-46.126-25.787-72.852-25.787-26.709 5.3e-4 -53.188 10.564-72.668 28.748-0.9588-0.9843-1.8648-2.0274-2.8672-2.9609-19.45-18.299-46.126-25.787-72.852-25.787-15.002 0-29.939 3.3372-43.617 9.459l3.5664-19.539-0.22657 1.1328c2.4427-11.398-2.4933-26.455-8.5488-33.52-6.0556-7.0641-11.164-9.2756-14.865-10.895-7.4026-3.2379-11.408-3.5589-15.734-4.1523-8.6517-1.187-17.427-1.4199-28.953-1.4199l-0.041 0.0059c-7.3493 2e-3 -15.424 0.4971-25.061 1.373v2e-3c-6.0079 0.54618-11.313 1.109-18.525 3.4609-3.606 1.176-7.8568 2.6727-13.477 6.832-0.81147 0.60057-1.7293 1.4959-2.6133 2.2812-4.0267-3.7944-8.1868-6.0906-11.254-7.5547-6.0079-2.8677-10.255-3.7091-14.258-4.4277-8.0058-1.4373-15.139-1.6641-23.777-1.6641-8.7239 0-15.972 0.23699-24.236 1.8262-4.1322 0.79461-8.5773 1.7518-14.727 4.8965-2.5988 1.329-5.8861 3.4924-9.1523 6.3652-3.6465-2.9493-7.2424-4.878-9.8359-6.0703-6.9487-3.1944-11.743-3.9971-16.648-4.7871-9.8105-1.5801-19.829-1.9316-32.574-1.9316-11.252 0-19.765 0.19994-27.682 1.0625-3.9583 0.43121-7.3839 0.62983-13.977 2.9199-3.2958 1.145-7.7467 2.3139-14.604 8.6738-3.7312 3.4611-7.7068 10.522-10.018 18.414-1.1346-0.2434-2.3819-0.59002-3.4492-0.79102-8.8176-1.6603-16.606-1.8745-26.428-1.875l-0.0391-2e-3c-10.049 0-18.192 0.22151-27.99 2.5547-4.8994 1.1667-10.488 2.5402-18.021 7.9219-6.8243 4.8751-15.511 16.667-17.1 29.432-3.3812 2.1757-6.401 4.6326-8.8555 7.1133-17.548-11.185-38.578-17.098-59.641-17.098-19.594 0-39.133 5.0949-55.93 14.734v-29.156c0-16.383-12.256-30.128-19.82-34.764-7.5644-4.6359-12.723-5.6393-17.51-6.6172-9.5735-1.9556-18.11-2.2148-28.861-2.2148-10.752 0-19.287 0.25932-28.861 2.2148-4.7872 0.97784-9.945 1.983-17.51 6.6191-2.1343 1.3082-4.6381 3.4043-7.1387 6.0176-11.983-12.046-24.697-11.853-34.844-13.061l1.0059 0.13281c-9.6968-1.4191-18.709-2.2305-27.457-2.2305l-0.0391 0.0039c-9.2254 3.02e-4 -16.569 0.18525-25.119 1.8086-4.2784 0.81241-8.8973 1.5741-16.18 5.7227-7.2824 4.1485-20.596 17.494-20.596 34.844v53.406c-2.1271 0.10016-4.2124 0.22266-6.7012 0.22266-1.7155 0-3.2586 0.0851-4.877 0.11718v-5.457c0-13.577-8.0957-24.606-13.479-29.229-5.3832-4.6229-9.0587-5.9728-11.871-7.0645-5.6243-2.1832-8.5882-2.5106-11.662-2.9805-6.1478-0.93981-11.851-1.2538-19.16-1.5117-0.46166 0.0676-0.92202 0.14382-1.3809 0.22851l0.0488-0.25195c-8.1422 0-14.623 0.13534-22.373 1.498-3.8748 0.68142-8.0347 1.2575-15.045 4.9551-7.0099 3.6977-21.48 16.519-21.48 35.053v20.971h-0.92969c-25.644-7.9e-4 -47.245 21.597-47.246 47.24v6e-3c0 25.644 21.602 47.243 47.246 47.242h0.93164v43.627c0 11.649 6.4716 22.64 11.857 27.84s9.5857 6.9903 12.748 8.2988c6.3243 2.6171 9.6978 2.9217 13.068 3.3867 6.7415 0.93003 12.704 1.0508 20.299 1.0508 7.7337 0 13.822-0.12476 20.828-1.1602 2.7069-0.4001 5.8786-1.0588 10.006-2.5156 2.4843 0.50521 4.5589 0.47356 6.1289 0.83594 4.0728 0.94008 6.8855 1.2158 9.8906 1.4785 6.0102 0.52543 12.384 0.66601 20.396 0.66601 5.274 0 10.953-0.29783 17.326-0.77734 3.5592-0.17839 6.4034-0.31674 10.49-0.96289 1.7031-0.2691 3.8703-0.62655 7.5645-1.916 1.6796 0.42229 3.4026 0.88324 4.9375 1.1836 9.3418 1.8278 17.73 2.0781 28.326 2.0781 10.684 0 19.129-0.25324 28.477-2.0625 4.6738-0.90451 9.6301-1.7896 17.121-6.1387 2.3176-1.3456 5.1702-3.6593 8.0078-6.6016 5.636 5.6626 11.295 7.6542 15.178 9.1348 5.664 2.1596 9.8647 2.885 14.113 3.5098 8.4975 1.2496 17.063 1.5469 27.635 1.5469 10.975 0 19.751-0.27405 29.768-2.5117 5.0079-1.1189 10.534-2.3671 18.184-7.4941 2.6079-1.7482 5.5822-4.5768 8.3848-8.0684 18.748 14.006 42.381 21.436 66.09 21.436 26.29 0 52.616-9.061 72.039-26.324 3.916 7.9296 9.8709 13.062 13.361 15.4 5.5181 3.6975 8.6614 4.5065 11.273 5.3164 5.2244 1.6199 8.3943 1.994 12.045 2.4688 7.3013 0.94961 15.522 1.4589 26.266 1.8887 0.503 0.0205 1.0064 0.0309 1.5098 0.0312 9.4492 0 16.815-0.18747 24.582-1.2969 3.8835-0.55476 7.6924-0.96624 14.352-3.8203 3.3294-1.427 7.6835-3.4018 13.041-8.7598 2.8139-2.814 5.7785-7.1984 8.0137-12.328 7.1577 12.448 18.533 16.815 25.164 19.184 8.5448 3.0526 15.78 4.0831 24.148 4.9707 0.73646 0.0783 1.475 0.13499 2.2148 0.16992l19.543 0.91602c0.58944 0.0275 1.1794 0.0411 1.7695 0.041 8.0326 0 16.065-0.35493 24.084-1.0625 0.40953-0.0363 0.81843-0.0793 1.2266-0.1289 8.3535-1.0125 15.572-2.1548 24.031-5.2969 3.8528-1.431 9.2995-3.5692 14.574-7.5156 1.9087 1.5664 3.7974 2.9193 5.502 3.9277 7.3383 4.3413 13.231 5.8563 18.957 7.0898 11.452 2.467 22.771 2.9863 36.814 2.9863 9.3948 0 19.412-0.90696 31.207-2.4648 7.0696-0.93373 13.371-1.9737 21.102-4.957 7.1255-2.7499 19.976-7.8909 26.32-25.02 0.9241 1.0062 1.7486 2.0884 2.7188 3.0586 0.0655 0.066 0.13127 0.13176 0.19727 0.19727 16.957 16.709 39.535 27.192 63.158 30.277-2.4194 10.328-2.98 18.195-1.5156 25.959 1.3013 6.9006 4.7388 11.352 7.0859 15.199 2.3467 3.8475 3.9425 6.9324 4.4512 10.771l2.5391 19.162 14.174-13.146c2.8388-2.6332 6.0358-3.987 10.297-5.4551 4.2606-1.468 9.7541-2.7105 15.156-7.1973 2.4345-2.022 4.6245-4.2705 6.6836-6.8398 10.472 13.409 19.012 21.302 29.478 26.74 8.1468 4.2325 16.091 4.423 23.076 5.25 6.9846 0.82707 13.1 1.9227 19.127 5.4844l16.639 9.832-1.5879-19.26c-0.5745-6.9759 1.114-12.952 3.418-19.598 2.3044-6.6454 5.5982-13.885 5.3457-23.062-0.2151-7.8022-1.7883-15.326-4.9805-23.936 4.4405 0.54194 8.8794 1.1484 13.361 1.1484 24.148 0 46.922-4.4668 66.797-15.631 3.8544-2.0141 7.3338-4.6234 10.354-7.7207 16.932 14.356 38.747 23.352 60.883 23.352 13.212 0 26.517-2.7073 38.82-7.7676 10.899 5.3525 22.942 7.7656 34.463 7.7656 7.598 0 15.476-2.2106 22.891-5.7754v46.195c0 25.645 21.599 47.243 47.244 47.242 22.984-9.8e-4 42.585-17.385 46.432-39.447 4.2996 0.91457 8.6783 1.643 13.135 2.1348 67.954 7.4996 129.86-4.4959 172.82-36.004 27.723-20.331 46.75-44.737 64.752-65.152 1.9075 0.13493 3.8129 0.27539 5.7481 0.27539 27.819 0 52.577-13.96 67.572-35.328h17.867c25.644-8e-5 47.243-21.599 47.244-47.242v-2e-3c0-25.645-21.6-47.245-47.246-47.244h-17.867c-14.997-21.366-39.757-35.322-67.57-35.322-1.5364 0-3.0413 0.15872-4.5625 0.24414-18.153-20.819-37.61-45.454-65.938-66.229-34.913-25.604-82.27-37.793-135.3-38.01-12.24-0.04989-24.78 0.60172-37.52 2.0078-4.8328 0.5334-9.0649 1.4351-13.1 2.4766-3.3047-19.835-19.337-35.806-39.193-39.037-2.3859-0.48612-4.8132-0.74056-7.2481-0.75977zm-214.68 339.35c-0.4 0.20903-0.7448 0.50137-1.1543 0.69531l2.961-1.5664c-0.5806 0.34094-1.2209 0.54209-1.8067 0.8711zm-574.88-215.68h0.49219l0.0605 1.7402c-0.0378-8e-3 -0.0537-0.0217-0.084-0.0293-0.13606-0.58031-0.30592-1.1419-0.4707-1.709zm575.97 29.836c-0.038 0.034-0.056 0.073-0.09 0.10742-0.038 0.034-0.069 0.0636-0.1 0.0976z" color="#000000" fill="#394a50" stroke-linejoin="round" stroke-width="75.59" style="-inkscape-stroke:none"/>
  <path transform="matrix(.26458 0 0 .26458 1625.6 143.02)" d="m1458.3 18.836c-15.432-8.7e-4 -28.346 12.915-28.346 28.348v127.66c-5.2891 4.7574-8.7537 11.25-9.3535 18.617h-7.0371v-91.838c0-11.718-8.2906-18.4-12.018-20.574-3.7266-2.174-5.9496-2.6554-8.0234-3.1738-4.0551-1.0137-7.4598-1.3553-11.619-1.7051-7.5972-0.85499-14.6-1.3436-21.088-1.3438h-0.0039c-8.7608 8.3e-5 -15.591 0.26723-22.35 1.5508-3.38 0.64176-6.7643 1.2916-11.56 4.0234-4.7959 2.7319-13.035 11.055-13.035 21.836v33.984c-22.188 1.5401-43.018 11.025-58.088 27.514-2.1099 2.2843-4.0726 4.6768-5.8984 7.166-3.2738-4.9295-7.1326-9.4973-11.518-13.574-16.094-15.151-38.396-21.728-62.582-21.732h-0.0235c-25.901 6e-3 -50.32 10.701-67.596 29.809l-0.0605 0.05859-0.0606 0.06641c-1.9672 2.2094-3.8101 4.507-5.5449 6.8789-3.4692-5.5008-7.6546-10.579-12.476-15.064-16.101-15.166-38.418-21.748-62.621-21.748h-0.0157c-24.507 0-47.683 9.5719-64.744 26.781l9.9492-54.516-0.13281 0.67969c1.505-7.0246-1.5152-16.244-5.2773-20.633-3.7622-4.3889-7.0151-5.8402-9.4922-6.9238-4.9542-2.1673-8.135-2.5413-11.775-3.041-7.2816-0.99942-15.728-1.2773-26.922-1.2773-6.6232 0-14.364 0.46213-23.74 1.3145-5.4021 0.49115-9.9619 1.0606-15.244 2.7832-2.6415 0.86128-5.5675 1.937-9.2129 4.6348-3.6457 2.6978-8.5828 8.119-9.9805 15.805l-0.09375 0.50196-1.4394 10.572-3.5801-14.758-0.40039-1.1289c-3.2126-8.9962-9.651-12.85-13.723-14.793-4.0717-1.9434-7.2555-2.6281-10.459-3.2031-6.4067-1.15-12.968-1.4258-21.127-1.4258-8.2118 0-14.853 0.29661-21.416 1.5586-3.2814 0.63107-6.5757 1.396-10.732 3.5215-4.1567 2.1255-10.435 6.443-13.324 15.109l-0.2793 0.8418-2.2734 9.1309-0.50195-4.332-0.07617-0.45899c-1.9049-12.062-10.784-17.501-15.605-19.717-4.8216-2.2163-8.6279-2.9409-12.779-3.6094-8.3029-1.3369-17.858-1.7422-30.191-1.7422-10.987 0-19.24 0.23224-26.057 0.97461-3.408 0.37115-6.2292 0.62832-10.689 2.1777-2.2303 0.77469-5.0916 1.574-9.3379 5.5137-3.9687 3.6817-8.4258 13.733-7.1328 21.852l-0.17578-0.83398 2.1309 13.756c-2.833-4.5129-6.648-7.8051-9.3691-9.3418-4.8635-2.7464-8.347-3.4191-11.869-4.082-7.0432-1.3258-14.312-1.6171-23.678-1.6172h-0.00195-0.00196c-9.4533 1e-4 -16.918 0.3366-24.527 2.1484-3.8048 0.90599-7.812 1.985-12.785 5.5371-4.9727 3.5521-11.162 12.238-11.162 21.244v5.2402c-7.3349 2.3553-13.492 7.9482-15.951 12.211-1.6457 2.8525-2.6258 5.3466-3.2852 7.6758-16.694-15.903-39.564-24.131-63.891-24.131-26.53 0-51.337 9.7492-68.459 28.502l-0.06055 0.0664-0.06055 0.06641c-0.80219 0.89278-1.5769 1.806-2.3379 2.7285v-60.75c0-10.277-7.6294-18.911-12.666-21.998-5.0366-3.087-8.8553-3.9347-12.684-4.7168-7.6566-1.5642-15.622-1.9121-25.865-1.9121-10.243 0-18.209 0.34791-25.865 1.9121-3.8283 0.78214-7.647 1.6298-12.684 4.7168-5.0366 3.087-12.674 11.721-12.674 21.998v2.4219l-6.0976-11.738-0.36328-0.59766c-9.2338-15.389-21.206-15.689-32.148-16.971-9.0285-1.3094-17.292-2.0526-24.979-2.0527h-0.00195c-8.7622 4.2e-5 -15.59 0.26713-22.35 1.5508-3.38 0.64176-6.7647 1.2915-11.561 4.0234-4.7958 2.7319-13.037 11.055-13.037 21.836v69.324c-6.8583-1.3451-12.881-0.72461-21.658-0.72461-6.7612 0-12.299 0.2218-17.938 1.2168-0.57449 0.10129-1.3274 0.44968-1.9121 0.56836v-22.102c0-8.2769-4.9281-15.002-8.2598-17.863-3.3317-2.8613-5.6683-3.7443-7.5293-4.4668-3.7217-1.4449-6.0048-1.7572-8.5117-2.1406-5.0147-0.76694-10.412-1.1019-17.43-1.3496l-0.39844-0.01562h-0.40624c-7.7035 0-13.702 0.20166-19.775 1.2695-3.0365 0.53389-6.0782 1.0383-10.66 3.4551-4.5819 2.4168-13.494 10.378-13.494 21.814v39.883h-15.938c-15.433-0.00113-28.347 12.915-28.346 28.348-0.001133 15.433 12.913 28.347 28.346 28.346h15.938v62.51c0 7.1267 3.9513 13.846 7.2871 17.066 3.3358 3.2208 5.9977 4.3831 8.0742 5.2422 4.1522 1.7182 6.6894 2.0122 9.3906 2.3848 5.4032 0.74524 10.998 0.91406 18.248 0.91406 7.3644 0 13.069-0.1799 18.646-1.0039 2.7885-0.412 5.4507-0.75099 9.7363-2.6504 0.89764-0.39768 2.297-1.7046 3.3965-2.3535 3.7168 2.4528 6.6474 3.1088 8.5625 3.5508 2.9076 0.67098 5.2213 0.92294 7.8242 1.1504 5.2063 0.4549 11.312 0.60547 19.09 0.60547 4.7796 0 10.199-0.27299 16.418-0.74414 3.3672-0.16971 5.9926-0.32095 9.0566-0.80469 1.567-0.24756 2.9848-0.27561 6.7266-1.8164 0.73963-0.30456 1.6329-0.6162 2.6953-1.168 3.0436 1.2841 5.66 1.8352 8.2891 2.3496 7.4959 1.4666 15.343 1.793 25.451 1.793 10.202 0 18.111-0.33176 25.631-1.7871 3.7599-0.72771 7.4604-1.4858 12.453-4.3848 4.9928-2.899 13.133-11.401 13.133-22.145v-3.957l8.0312 15c4.7743 8.9516 10.852 11.063 14.867 12.594s7.367 2.157 10.961 2.6856c7.1879 1.057 15.279 1.3887 25.453 1.3887 10.417 0 18.566-0.38161 26.51-2.1562 3.9715-0.88732 8.0165-1.901 13.109-5.3144 4.8849-3.274 11.335-11.481 11.855-20.602 0.77694 0.94366 1.5686 1.8764 2.3887 2.7891l0.06055 0.06641 0.06055 0.0664c17.122 18.753 41.929 28.51 68.459 28.51 26.53 0 51.333-9.7868 68.275-28.643 6.1382-6.8312 11.057-14.548 14.85-22.957v23.584c0 10.796 7.1425 17.304 10.602 19.621 3.459 2.3175 5.5434 2.888 7.373 3.4551 3.659 1.1343 6.3249 1.5023 9.5371 1.9199 6.4244 0.83516 14.418 1.3585 24.938 1.7793l0.45703 0.01368h0.45117c9.0928 0 16.085-0.23043 22.469-1.1426 3.1918-0.45597 6.1275-0.85688 10.572-2.7617 2.2224-0.95241 5.0062-2.2387 8.3477-5.5801 3.3411-3.3413 7.0879-10.038 7.0879-17v-85.27h-1.1445c3.0537 0 6.0808-0.74093 8.8828-1.8965l13.258 85.592 0.15625 0.72461c3.222 14.502 13.988 18.854 20.559 21.201 6.5711 2.3468 12.978 3.3596 20.691 4.1777l0.66406 0.0664 20.75 0.97461h0.53125c7.5923 0 15.189-0.33481 22.773-1.0039l0.37109-0.03125 0.36914-0.04297c7.7053-0.93396 14.105-2.0531 20.625-4.4746 6.2559-2.3235 16.068-6.6116 19.703-19.709 2.3686 8.4414 8.3514 14.402 13.205 17.273 5.1477 3.0451 9.7243 4.3089 14.492 5.3359 9.5361 2.054 20.173 2.6504 33.652 2.6504 8.3312 0 17.857-0.82661 29.256-2.332 6.4063-0.84612 11.854-1.8366 17.672-4.082 5.8174-2.2453 15.269-6.1595 18.795-19.385l0.23438-0.87891 5.5684-30.514c4.5448 12.15 11.32 23.084 20.426 32.189l0.06055 0.06054 0.06054 0.0586c17.787 17.525 41.712 27.025 67.014 27.025 22.396 0 42.557-4.1484 59.602-13.76 7.864-3.9015 13.269-11.62 16.119-19.498 1.7408 2.1162 3.581 4.1592 5.5352 6.1133l0.0605 0.06054 0.0606 0.0586c17.786 17.525 41.71 27.025 67.012 27.025 22.397 0 42.564-4.1482 59.609-13.76 7.3519-3.6475 12.552-10.634 15.529-17.965 0.7076 0.89877 1.4282 1.79 2.1739 2.6621 15.445 18.064 37.481 29.063 60.701 29.062 14.004 4e-5 27.478-3.5664 39.514-9.8106 1.7454 1.0745 3.4143 2.3193 5.2266 3.2617l0.1621 0.08984 0.1562 0.08008c8.7474 4.3737 18.514 6.3789 28.229 6.3789 16.564 0 33.64-12.122 40.32-26.818l0.0644-0.14844 0.0664-0.14844c0.4899-1.1197 0.7575-2.2482 1.2051-3.3633v85.791c-7e-4 15.432 12.914 28.347 28.346 28.346 15.432 8.3e-4 28.346-12.914 28.346-28.346v-18.264c9.93 4.5799 20.899 8.0433 33.301 9.4121 64.148 7.0795 122.39-5.1891 159.57-32.459 28.229-20.702 48.092-47.124 68.889-69.957 4.1522 0.85795 8.4115 1.4238 12.785 1.4238 24.681 0 45.648-14.563 56.197-35.33h29.24c15.432 8.7e-4 28.346-12.913 28.346-28.346 4e-4 -15.432-12.914-28.347-28.346-28.346h-29.232c-10.549-20.77-31.524-35.322-56.205-35.322-4.0614 0-8.0107 0.51915-11.885 1.2617-21.112-23.042-41.16-49.907-69.789-70.902-30.214-22.159-74.302-34.152-124.21-34.355-11.517-0.046866-23.349 0.56926-35.375 1.8965-12.401 1.3687-23.363 4.8326-33.293 9.4121v-18.27c4e-4 -15.305-12.722-28.063-27.984-28.273a18.899 18.899 0 0 0-0.3613-0.082031z" color="#000000" fill="#202e37" stroke-linecap="round" stroke-linejoin="round" stroke-width="3.7795" style="-inkscape-stroke:none;paint-order:stroke fill markers"/>
  <path transform="matrix(.26458 0 0 .26458 1625.6 143.02)" d="m1413.6 212.36v18.898h10.379c5.218-7.6e-4 9.4476-4.2312 9.4473-9.4492 3e-4 -5.218-4.2293-9.4485-9.4473-9.4492h-10.379zm-1366.3 0.08594c-5.2188-3.8e-4 -9.4496 4.2304-9.4492 9.4492-3.78e-4 5.2188 4.2304 9.4496 9.4492 9.4492h15.936v-18.898h-15.936z" fill="#75a743" style="paint-order:stroke fill markers"/>
  <path transform="matrix(.26458 0 0 .26458 1625.6 143.02)" d="m1121.6 320.54c-6.8978 0.04245-14.059 3.1644-21.172 7.418-2.9231 1.7481-4.358 1.1051-5.5977-0.4707l-0.6797 0.39063c10.082 17.695 29.308 51.342 32.594 56.588-3.2859-5.246-25.164-37.23-36.686-54.021l-0.6465 0.43946c0.8761 1.8038 0.8272 3.375-2.0214 5.2422-2.3513 1.5413-4.5827 3.1467-6.6309 4.834 1.329 1.3304 2.5504 2.8544 3.6152 4.6406 4.5544 7.6399 4.153 17.988-0.5546 28.244-1.6702 3.6384-3.2928 6.8653-4.9395 9.7656 11.04 14.554 18.587 21.63 28.227 26.639 11.162 5.7993 26.988 1.7258 42.68 11-1.4966-18.165 9.0744-30.624 8.7286-43.199-0.3062-11.136-3.5165-21.22-12.279-38.264-7.334-14.265-15.768-19.301-24.637-19.246zm-80.039 15.076c-7.2237 0.06173-13.314 3.986-16.561 16.145-3.2481 12.162-3.901 19.083-2.5449 26.273 1.5315 8.1196 10.054 14.643 11.627 26.512 8.7779-8.1415 19.505-7.7344 25.861-13.014 5.6288-4.6753 9.5358-10.423 14.787-21.863 7.8138-17.023-0.8509-24.008-12.469-28.465-2.089-0.80119-2.3388-1.8043-2.0274-3.084l-0.4785-0.1875c-5.0532 12.386-14.636 35.967-16.014 39.791 1.3777-3.8256 9.028-28.103 13.031-40.869l-0.4903-0.15625c-0.5763 1.1843-1.4074 1.7964-3.5273 1.082-3.8693-1.3036-7.6675-2.1942-11.195-2.1641z" color="#000000" fill="url(#linearGradient1033)" stroke-width="20" style="-inkscape-stroke:none;paint-order:stroke fill markers"/>
  <path transform="matrix(.26458 0 0 .26458 1625.6 143.02)" d="m1360.8 97.656c-16.081 0-24.123 1.5267-24.123 4.5801v58.016c-5.6998-1.2213-11.297-1.832-16.793-1.832-18.931 0-34.707 6.9196-47.328 20.762-12.621 13.639-18.932 33.079-18.932 58.32 0 25.038 6.0055 44.579 18.016 58.625 12.01 14.046 26.462 21.068 43.357 21.068 16.896 0 30.941-5.3929 42.137-16.182l2.75 3.9688c1.8321 2.8498 5.2919 5.5979 10.381 8.2441 5.2926 2.6463 11.298 3.9688 18.016 3.9688 8.9565 0 15.47-4.4769 19.541-13.434 2.8498-6.5139 4.2754-12.01 4.2754-16.488 0-4.6819-0.2044-8.3459-0.6113-10.992-1.6285-9.1602-4.9872-13.74-10.076-13.74h-10.688v-160.92c0-1.2214-3.6639-2.1374-10.992-2.748-7.1246-0.81426-13.434-1.2207-18.93-1.2207zm-441.83 1.832c-5.4962 0-12.723 0.40647-21.68 1.2207-8.9565 0.81427-13.638 2.3409-14.045 4.5801l-17.711 129.77-31.756-130.99c-1.0177-2.8498-8.9566-4.2754-23.816-4.2754-14.86 0-22.798 1.5267-23.816 4.5801l-32.365 130.08-14.963-128.55c-0.61077-3.8676-12.62-5.8008-36.029-5.8008-21.17 0-31.451 1.1182-30.84 3.3574l31.451 203.05c0.81411 3.6641 7.9381 6.2079 21.373 7.6328l19.543 0.91601c6.9211 0 13.841-0.30534 20.762-0.91601 13.435-1.6285 20.561-4.2754 21.375-7.9395l22.594-83.662 20.764 83.969c1.2213 5.6997 14.452 8.5488 39.693 8.5488 6.7175 0 15.471-0.71181 26.26-2.1367 10.789-1.4249 16.59-3.6654 17.404-6.7188l36.947-202.44c0.61052-2.8498-9.7708-4.2754-31.145-4.2754zm-680.91 0.61133c-16.081 0-24.123 1.5267-24.123 4.5801v204.27c0 3.6641 9.3642 5.4961 28.092 5.4961 18.931 0 28.396-1.832 28.396-5.4961v-94.961l50.992 95.268c1.6285 3.0534 12.01 4.5801 31.145 4.5801s28.703-2.1373 28.703-6.4121v-201.22c0-3.8676-9.4653-5.8008-28.396-5.8008s-28.398 1.9331-28.398 5.8008v95.877l-48.854-94.045c-1.8321-3.0534-7.0227-5.0877-15.572-6.1055-8.346-1.2214-15.674-1.832-21.984-1.832zm368.54 28.396c-17.099 0-25.648 2.0343-25.648 6.1055v26.871h-16.184c-2.2392 0-3.7657 2.6469-4.5801 7.9394-0.61052 5.2926-0.91602 9.7695-0.91602 13.434 0 14.046 2.0364 21.068 6.1074 21.068h15.572v108.09c0 1.832 10.177 3.1545 30.533 3.9688 17.099 0 25.648-1.2213 25.648-3.6641l0.00195-108.09h21.68c3.4605 0 5.1894-7.1258 5.1894-21.375 0-14.249-1.7289-21.373-5.1894-21.373h-25.955l-0.30664-8.5488v-19.543c0-3.257-8.6504-4.8848-25.953-4.8848zm-499.54 21.459c-14.069 0-21.104 1.2353-21.104 3.709v159.09c0 1.8552 6.7255 2.7812 20.176 2.7812 13.605 0 20.406-1.0038 20.406-3.0137v-51.252l22.959 51.484c1.0822 1.3914 9.045 2.0859 23.887 2.0859 4.0199 0 9.0449-0.23151 15.074-0.69531 6.1841-0.30922 9.1197-0.77222 8.8105-1.3906l-34.785-65.166 30.148-49.164c-3.4013-1.546-11.132-2.3184-23.191-2.3184-12.059 0-18.629 1.1595-19.711 3.4785l-22.959 42.438v-89.051c0-1.546-6.5698-2.5498-19.711-3.0137zm367.93 8.4648c-21.577 0-38.777 7.0227-51.602 21.068-12.621 14.046-18.932 33.484-18.932 58.318 0 24.834 6.311 44.275 18.932 58.32 12.824 14.046 30.024 21.068 51.602 21.068s38.676-7.0227 51.297-21.068c12.621-14.046 18.932-33.486 18.932-58.32 0-24.834-6.311-44.273-18.932-58.318-12.621-14.046-29.72-21.068-51.297-21.068zm552.36 0c-20.356 0-37.253 7.4292-50.688 22.289-13.231 14.86-19.846 34.502-19.846 58.93 0 24.224 6.9196 43.258 20.762 57.1 13.842 13.639 30.84 20.457 50.992 20.457s36.641-3.7651 49.465-11.297c3.8678-1.832 5.8028-5.7003 5.8028-11.604 0-6.1068-2.4427-13.536-7.3281-22.289-1.628-3.0534-2.544-4.479-2.7481-4.2754-12.824 6.5139-26.362 9.7715-40.611 9.7715-6.5139 0-11.5-1.1202-14.961-3.3594-3.2569-2.4427-4.8847-6.7174-4.8847-12.824h21.068c37.862 0 56.793-16.488 56.793-49.465 0-14.86-5.5992-27.48-16.795-37.861-10.992-10.382-26.666-15.572-47.022-15.572zm148.39 0c-20.356 0-37.251 7.4292-50.686 22.289-13.232 14.86-19.848 34.502-19.848 58.93 0 24.224 6.9216 43.258 20.764 57.1 13.842 13.639 30.838 20.457 50.99 20.457 20.152 0 36.642-3.7651 49.467-11.297 3.8677-1.832 5.8008-5.7003 5.8008-11.604 0-6.1068-2.4424-13.536-7.3281-22.289-1.628-3.0534-2.544-4.479-2.7481-4.2754-12.824 6.5139-26.362 9.7715-40.611 9.7715-6.5139 0-11.5-1.1202-14.961-3.3594-3.257-2.4427-4.8848-6.7174-4.8848-12.824h21.068c37.862 0 56.793-16.488 56.793-49.465 0-14.86-5.597-27.48-16.793-37.861-10.992-10.382-26.667-15.572-47.024-15.572zm-148.39 46.41c8.3459 0 12.52 4.2747 12.52 12.824 0 6.921-3.3587 10.383-10.076 10.383h-16.488v-9.4668c0-4.4783 1.3226-7.837 3.9687-10.076 2.85-2.4427 6.2087-3.6641 10.076-3.6641zm148.39 0c8.346 0 12.52 4.2747 12.52 12.824 0 6.921-3.3587 10.383-10.076 10.383h-16.488v-9.4668c0-4.4783 1.3223-7.837 3.9688-10.076 2.8497-2.4427 6.2084-3.6641 10.076-3.6641zm150.84 2.4434c3.257 0 6.6157 1.0171 10.076 3.0527v51.908c-3.6641 3.4605-7.5325 5.1914-11.604 5.1914-3.8677 0-7.4286-2.2385-10.686-6.7168-3.2569-4.6819-4.8867-12.214-4.8867-22.596 0-20.56 5.7003-30.84 17.1-30.84zm-851.59 2.1367c11.603 0 17.404 9.3642 17.404 28.092 0 18.728-5.8014 28.092-17.404 28.092-11.399 0-17.1-9.3643-17.1-28.092 0-18.728 5.7003-28.092 17.1-28.092z" fill="#75a743" stroke-width="45.649" style="paint-order:stroke fill markers"/>
  <path d="m2017.5 169.01-6.2218 26.904 11.333 5.5904-11.047 5.4795 0.3125 15.551 10.851 13.601 36.759-0.3106 26.303-24.883-2.9361-9.364 3.8976-8.7167-17.087-17.705-24.928-10.382z" fill="url(#linearGradient30873)"/>
  <path d="m2011.5 153.02c-1.3807-6e-5 -2.5001 1.1193-2.5001 2.5001v36.761c-0.1086 0.0103-0.1485 0.0119-0.3416 0.0326-1.2574 0.13536-2.2158 1.1885-2.2324 2.4531l-0.023 1.7756c-0.015 1.1006 0.6918 2.0815 1.7405 2.4159 3.1783 1.0128 7.5439 1.864 12.244 2.6195-4.7006 0.75589-9.0659 1.6081-12.244 2.621-1.0487 0.33438-1.7553 1.3153-1.7405 2.4159l0.023 1.7751c0.017 1.2646 0.975 2.3177 2.2324 2.4531 0.1931 0.0209 0.233 0.0222 0.3416 0.0326v36.761c0 1.3808 1.1194 2.5002 2.5001 2.5001 1.3808 5e-5 2.5002-1.1193 2.5001-2.5001v-15.458c0.1027 0.17532 0.1902 0.35791 0.2993 0.5302 2.5825 4.0819 7.1335 6.8513 14.058 7.6156 15.965 1.762 30.407-1.5568 38.716-7.6507 7.4501-5.4637 12.941-13.375 19.593-20.205 1.5148 0.70739 3.2011 1.1038 4.9749 1.1038 5.6562 0 10.422-4.0235 11.579-9.3478h11.026c1.3808 5e-5 2.5002-1.1193 2.5001-2.5001 1e-4 -1.3808-1.1193-2.5002-2.5001-2.5001h-11.026c-1.1566-5.324-5.923-9.3457-11.579-9.3457-1.697 0-3.3137 0.36279-4.777 1.0134-6.7411-6.8753-12.266-14.89-19.79-20.408-6.7515-4.9513-17.551-8.0704-29.927-8.121-2.856-0.0116-5.7962 0.14042-8.7897 0.47078-6.925 0.7643-11.476 3.5331-14.058 7.615-0.1091 0.17229-0.1966 0.35488-0.2993 0.5302v-15.458c1e-4 -1.3808-1.1193-2.5002-2.5001-2.5001zm25.621 14.368c11.559 0.10959 21.55 3.1319 26.997 7.1262 6.3505 4.6572 11.654 12.344 18.634 19.405-1.837 2.0885-2.9554 4.8228-2.9554 7.8047 0 2.9081 1.064 5.5804 2.8205 7.6486-6.9131 7.0239-12.19 14.642-18.499 19.269-6.7035 4.9161-20.292 8.3596-35.213 6.7128-5.96-0.6577-8.5834-2.4792-10.381-5.3201s-2.6288-7.16-3.4783-12.518c-0.075-0.47131-0.5289-5.9605-0.5277-6.0642 0.012-0.94269-0.06-1.7717-0.3493-2.5998-0.037-0.10498-0.099-0.19597-0.1685-0.28371v-0.65267c7.5266-1.6996 18.862-3.1367 28.629-3.8447 1.31-0.0916 2.3259-1.181 2.3259-2.4942s-1.0159-2.4026-2.3259-2.4941c-9.7679-0.70803-21.103-2.144-28.629-3.8432v-0.65268c0.07-0.0877 0.1318-0.17872 0.1685-0.28368 0.2894-0.8281 0.3609-1.6566 0.3493-2.5993 0-0.10383 0.4529-5.5934 0.5277-6.0648 0.8495-5.3576 1.6809-9.6767 3.4783-12.518 1.7974-2.8409 4.4208-4.6624 10.381-5.3201 2.7976-0.30877 5.5486-0.43871 8.216-0.41342zm5.6265 7.5561c-0.1633 9e-3 -0.3253 0.0342-0.4837 0.0749-9.8996 2.5478-17.264 8.5404-20.93 13.668-0.3855 0.5398-0.5408 1.2107-0.4315 1.865 0.1088 0.65378 0.4728 1.2376 1.0119 1.6232 1.1234 0.80322 2.6853 0.54338 3.4881-0.58031 2.8547-3.9921 9.5031-9.5197 18.107-11.734 1.337-0.34465 2.1414-1.7078 1.7969-3.0448-0.2978-1.1542-1.3689-1.9376-2.5591-1.8717zm16.76 6.1567c-9.3588-0.0607-16.861 3.5516-20.411 8.5158-0.385 0.53925-0.5402 1.2093-0.4315 1.8629 0.1081 0.65445 0.4719 1.2391 1.0113 1.6252 1.1235 0.80357 2.6858 0.54366 3.4887-0.58034 2.4642-3.4462 10.148-7.3427 19.877-6.1991 1.3708 0.16042 2.6123-0.82036 2.7735-2.1911 0.1616-1.371-0.8186-2.6136-2.1896-2.7756-1.4066-0.16534-2.7816-0.24919-4.1186-0.25787zm8.354 9.5808c-4.0469 0.0449-7.8625 1.2246-11.072 3.8116-1.0751 0.86659-1.244 2.4406-0.3773 3.5156 0.8665 1.074 2.4393 1.2429 3.514 0.37724 3.2246-2.5994 7.0232-3.2652 11.826-2.342 1.3564 0.26088 2.6674-0.62775 2.9274-1.9844 0.26-1.3559-0.6284-2.6659-1.9843-2.9259-1.632-0.31371-3.2508-0.46974-4.8344-0.45217zm23.781 4.1961c3.811 0 6.8477 3.0346 6.8477 6.8456s-3.0367 6.8476-6.8477 6.8476-6.8456-3.0366-6.8456-6.8476 3.0346-6.8456 6.8456-6.8456zm-33.159 9.634c-0.7988-0.04-1.5685 0.30461-2.0707 0.92707-0.8667 1.075-0.6978 2.649 0.3773 3.5156 4.4649 3.5994 10.104 4.4748 15.906 3.3595 1.3558-0.26006 2.2442-1.57 1.9843-2.9259-0.26-1.3566-1.571-2.2452-2.9274-1.9844-4.803 0.92329-8.6016 0.25751-11.826-2.342-0.411-0.33102-0.9162-0.52348-1.4433-0.54983zm-17.431 5.3661c-0.4944 0.0156-0.9732 0.17737-1.3756 0.46508-0.5389 0.38563-0.9026 0.96946-1.0113 1.6232-0.1093 0.65429 0.046 1.3252 0.4315 1.865 4.0569 5.6733 13.276 9.5806 24.529 8.2579 1.3708-0.16195 2.351-1.4042 2.1896-2.775-0.161-1.3709-1.4025-2.352-2.7735-2.1916-9.7293 1.1436-17.413-2.7529-19.877-6.1991-0.4855-0.67956-1.2783-1.0718-2.1131-1.0454zm-17.763 0.92966c-0.4943 0.0156-0.9728 0.17746-1.3751 0.46509-0.5391 0.38555-0.9031 0.96938-1.0119 1.6232-0.1093 0.65429 0.046 1.3252 0.4315 1.865 3.6665 5.1275 11.03 11.121 20.93 13.668 1.3365 0.34322 2.6983-0.46117 3.0428-1.7973 0.3445-1.337-0.4599-2.7001-1.7969-3.0448-8.6043-2.2145-15.253-7.742-18.107-11.734-0.4855-0.67956-1.2783-1.0718-2.113-1.0454z" color="#000000" fill="#75a743" style="paint-order:stroke fill markers"/>
  <path transform="matrix(.26458 0 0 .26458 1625.6 143.02)" d="m1360.7 107.09-0.0019 0.00391c-6.731 0-11.535 0.35154-14.672 0.79687v52.348a9.4497 9.4497 0 0 1-11.432 9.2383c-5.0914-1.091-10.016-1.6211-14.812-1.6211-16.628 0-29.308 5.5756-40.344 17.68a9.4497 9.4497 0 0 1-0.0469 0.05273c-10.647 11.506-16.418 28.235-16.418 51.9 0 23.527 5.5406 40.547 15.748 52.484 10.588 12.382 21.9 17.76 36.178 17.76 14.884 0 26.095-4.3984 35.58-13.539a9.4497 9.4497 0 0 1 14.326 1.4277l2.748 3.9707a9.4497 9.4497 0 0 1 0.1778 0.26758c0.3972 0.61741 2.5151 2.7211 6.7168 4.9219 3.849 1.9141 8.2777 2.9512 13.73 2.9512 5.7846 0 7.9326-1.3198 10.906-7.8359 2.5081-5.7511 3.4609-10.176 3.4609-12.639 0-4.3638-0.219-7.6295-0.4961-9.4609-0.5933-3.246-1.4086-5.0964-1.8281-5.8223h-9.5996a9.4497 9.4497 0 0 1-9.4492-9.4492v-153.94c-0.9241-0.11263-1.1516-0.21266-2.3281-0.31055a9.4497 9.4497 0 0 1-0.2871-0.02734c-6.8512-0.78297-12.828-1.1602-17.858-1.1602zm-441.81 1.8203-0.00196 0.01562c-5.0302 0-12.042 0.38325-20.824 1.1816-3.0943 0.2812-4.6694 0.66451-6.1582 1.0039l-17.09 125.21a9.4497 9.4497 0 0 1-18.545 0.94922l-30.807-127.09c-0.09449-0.0189-0.05408-0.01821-0.15235-0.03711-2.9601-0.53148-8.3015-0.91992-15.43-0.91992-7.1063 0-12.417 0.41781-15.312 0.97461-0.15874 0.03023-0.09076 0.03415-0.23438 0.0625l-31.465 126.45a9.4497 9.4497 0 0 1-18.555-1.1894l-14.449-124.16c-0.74948-0.19578-0.8991-0.31296-2.0957-0.50586-5.054-0.814-13.619-1.3301-25.062-1.3301-9.0773 0-15.638 0.25774-20.234 0.63672l29.734 191.97c0.1663 0.07521 4.2e-4 0.01904 0.24609 0.10937 2.2946 0.81967 6.8689 1.7888 13.082 2.457l18.801 0.88086c6.5586-0.00298 13.116-0.2948 19.678-0.86914 6.2177-0.76271 10.799-1.7977 13.115-2.6582 0.65613-0.24378 0.50885-0.21204 0.65625-0.31445l22.061-81.688a9.4497 9.4497 0 0 1 18.293 0.19531l20.295 82.078c0.68523 0.32429 1.8263 0.83883 4.125 1.334 5.407 1.1648 14.601 1.9258 26.865 1.9258 6.048 0 14.486-0.66498 25.023-2.0566 4.7354-0.6254 8.1142-1.4478 9.9004-2.0898l34.988-191.71c-4.5139-0.47993-11.189-0.81445-20.447-0.81445zm-680.9 0.625c-6.7298 1.1e-4 -11.534 0.35187-14.67 0.79687v193.53c3.6189 0.64572 9.951 1.127 18.639 1.127 8.8294 0 15.28-0.48417 18.951-1.1387v-89.867a9.4497 9.4497 0 0 1 17.777-4.459l49.836 93.105c0.70979 0.20637 1.5217 0.45523 3.207 0.70313 4.3642 0.6418 11.448 1.0449 20.764 1.0449 9.0848 0 15.732-0.58722 19.25-1.3477v-191.98c-3.6038-0.68689-10.079-1.2031-18.947-1.2031-8.8675 0-15.342 0.51627-18.945 1.2031v91.025a9.4497 9.4497 0 0 1-17.832 4.3555l-48.537-93.434c0.98117 1.7182-1.3562-0.82631-8.623-1.6914a9.4497 9.4497 0 0 1-0.25391-0.03321c-8.0073-1.1718-14.911-1.7323-20.611-1.7324l-0.00391-0.0039zm368.54 28.395-0.00391 0.00195c-7.6448 0-13.123 0.52478-16.199 1.1543v22.371a9.4497 9.4497 0 0 1-9.4512 9.4492h-11.404c-0.54085 4.8132-0.82422 8.8946-0.82422 11.926 0 5.5126 0.44087 9.2914 0.90235 11.619h11.326a9.4497 9.4497 0 0 1 9.4512 9.4492v101.13c4.5317 0.56677 11.641 1.089 21.289 1.4785 7.214-0.00378 12.463-0.28423 15.996-0.67383v-101.63a9.4497 9.4497 0 0 1 9.4492-9.4492h16.645c0.41045-2.5561 0.77344-6.4019 0.77344-11.924 0-5.5221-0.36261-9.369-0.77344-11.926h-20.922a9.4497 9.4497 0 0 1-9.4414-9.1133l-0.30664-8.5488a9.4497 9.4497 0 0 1 0-0.33594v-14.053c-3.3876-0.52441-8.8814-0.92578-16.506-0.92578zm-499.72 21.463-0.00195 0.0039c-5.0914 0.00756-8.7505 0.23472-11.467 0.52344v145.68c2.7288 0.23168 5.6847 0.4707 10.729 0.4707 5.1696 0 8.2213-0.25893 10.955-0.51367v-44.303a9.4497 9.4497 0 0 1 18.078-3.8476l21.127 47.375c0.35528 0.04006 0.3948 0.06962 0.81055 0.10742 3.4738 0.30387 9.0048 0.48633 16.277 0.48633 2.2991 0 5.8324-0.24418 9.0234-0.41993l-28.26-52.934a9.4497 9.4497 0 0 1 0.2793-9.3887l22.486-36.67c-2.4824-0.16744-4.3995-0.42578-7.4727-0.42578-5.7264 0-10.019 0.31672-12.33 0.72461-0.21544 0.03779-0.12315 0.03025-0.30079 0.07031l-21.73 40.17a9.4497 9.4497 0 0 1-17.76-4.4961v-81.85c-2.6861-0.28989-5.6003-0.58707-10.443-0.76172zm368.11 8.4609c-19.512 0-33.556 5.8859-44.598 17.965-10.753 11.984-16.484 28.76-16.484 51.975 0 23.214 5.732 39.99 16.484 51.975 11.041 12.079 25.085 17.965 44.598 17.965 19.527 0 33.439-5.8792 44.271-17.934 10.77-11.986 16.508-28.772 16.508-52.006 0-23.234-5.7377-40.018-16.508-52.004-10.831-12.054-24.744-17.936-44.271-17.936zm552.35 0c-18.044 4.5e-4 -31.812 6.0734-43.648 19.154-11.506 12.936-17.432 29.913-17.432 52.617 0 22.414 6.0976 38.509 17.98 50.4 12.201 12.005 26.322 17.705 44.324 17.705 18.975 0 33.719-3.5591 44.68-9.9961a9.4497 9.4497 0 0 1 0.7403-0.39063c0.3175-0.1508 0.3965 0.77585 0.3965-3.0644 0-3.0862-1.3783-8.1627-4.5508-14.551-11.702 4.7009-23.989 7.207-36.686 7.207-7.5972 0-14.365-1.167-20.096-4.875a9.4497 9.4497 0 0 1-0.5371-0.375c-6.2808-4.7107-8.664-12.597-8.664-20.383a9.4497 9.4497 0 0 1 9.4492-9.4492h21.066c17.56 0 29.276-3.848 36.389-10.043 7.113-6.195 10.955-15.292 10.955-29.973 0-12.487-4.2197-22.083-13.768-30.936a9.4497 9.4497 0 0 1-0.0645-0.05859c-8.8751-8.3818-21.784-12.99-40.533-12.99h-2e-3zm148.92 0c-18.044 4.5e-4 -31.812 6.0734-43.648 19.154-11.506 12.936-17.432 29.913-17.432 52.617 0 22.414 6.0977 38.509 17.98 50.4 12.201 12.005 26.322 17.705 44.324 17.705 18.975 0 33.72-3.5591 44.68-9.9961 0.2419-0.14098 0.4878-0.27139 0.7402-0.39063 0.3175-0.1508 0.3965 0.77585 0.3965-3.0644 0-3.0862-1.3782-8.1627-4.5508-14.551-11.702 4.7009-23.989 7.207-36.686 7.207-7.5972 0-14.365-1.167-20.096-4.875-0.1852-0.11868-0.3629-0.24385-0.5371-0.375-6.2808-4.7107-8.6641-12.597-8.6641-20.383 4e-4 -5.2185 4.2309-9.449 9.4492-9.4492h21.066c17.56 0 29.276-3.848 36.389-10.043 7.1131-6.195 10.955-15.292 10.955-29.973 0-12.487-4.2197-22.083-13.768-30.936-0.0378-0.01889-0.0418-0.03894-0.0644-0.05859-8.8751-8.3818-21.784-12.99-40.533-12.99h-2e-3zm-148.92 27.514c5.7865 0 11.865 1.6643 16.15 6.0547 4.286 4.3902 5.8183 10.406 5.8183 16.219 0 4.9889-1.3153 10.378-5.1875 14.367-3.8721 3.9891-9.3568 5.4629-14.338 5.4629h-16.488a9.4497 9.4497 0 0 1-9.4492-9.4492v-9.4648c0-6.3297 2.2927-13.023 7.2968-17.27 4.4504-3.8033 10.352-5.9199 16.197-5.9199zm148.92 0c5.7864 0 11.865 1.6643 16.15 6.0547 4.2859 4.3902 5.8183 10.406 5.8183 16.219 0 4.9889-1.3154 10.378-5.1875 14.367-3.8721 3.9891-9.3568 5.4629-14.338 5.4629h-16.488c-5.2183-2.6e-4 -9.4488-4.2307-9.4492-9.4492v-9.4648c0-6.3297 2.2928-13.023 7.2969-17.27 4.4504-3.8033 10.352-5.9199 16.197-5.9199zm150.31 2.4434c5.2244 0 10.289 1.6645 14.867 4.3574a9.4497 9.4497 0 0 1 4.6582 8.1445v51.908a9.4497 9.4497 0 0 1-2.9609 6.8691c-4.9342 4.6599-11.343 7.7695-18.09 7.7695-7.5134 0-14.026-4.6918-18.33-10.609a9.4497 9.4497 0 0 1-0.1133-0.16016c-5.1273-7.3701-6.5781-16.623-6.5781-27.992 0-11.153 1.3143-20.235 5.459-27.711 4.1446-7.4759 12.548-12.574 21.088-12.574v-0.00195zm-851.58 2.1367c8.3433 0 16.7 4.417 21.086 11.496 4.3861 7.0793 5.7676 15.705 5.7676 26.045 0 10.34-1.3811 18.966-5.7676 26.045-4.3861 7.0789-12.743 11.494-21.086 11.494-8.2862 0-16.588-4.4868-20.893-11.559-4.3037-7.0715-5.6523-15.659-5.6523-25.98 0-10.322 1.3486-18.908 5.6523-25.979 4.3038-7.0718 12.607-11.562 20.893-11.562zm-320.89 104.29c-0.48831-0.15874-0.56183 0.1613-0.36719 0.20703 0.09827 0.02268 0.6493 0.07693 0.84961 0.11133-0.15496-0.09525-0.37433-0.27981-0.48242-0.31836z" fill="url(#linearGradient1358)" stroke-width=".99999" style="paint-order:stroke fill markers"/>
 </g>
</svg>
