<svg xmlns="http://www.w3.org/2000/svg" xmlns:xlink="http://www.w3.org/1999/xlink" xml:space="preserve" version="1.1" style="shape-rendering:geometricPrecision;text-rendering:geometricPrecision;image-rendering:optimizeQuality;" viewBox="0 0 290 318.75" x="0px" y="0px" fill-rule="evenodd" clip-rule="evenodd"><defs><style type="text/css">
   
    .fil0 {fill:black}
   
  </style></defs><g><path class="fil0" d="M159 206c-27,-7 -79,6 -121,-36 -46,-45 -60,80 13,83 22,5 49,-2 56,-5 27,-17 18,2 34,-16 4,-4 24,-24 18,-26z"/><path class="fil0" d="M150 230c5,-6 15,-16 17,-24 0,-1 1,-1 1,-1 35,-16 42,-26 68,-51 9,-9 15,-16 20,-27 4,-7 2,-14 1,-14 -1,-1 -1,6 -6,13 -7,12 -22,29 -35,42 -1,1 2,-8 3,-11 9,-23 0,-37 5,-53 2,-7 13,-7 11,-27 -1,-13 8,-18 8,-31 0,-10 -2,-13 -9,-19 9,-1 18,13 31,21 28,18 19,15 17,42 -2,42 26,17 -13,60 -36,40 13,28 -47,56 -40,18 -2,20 -72,24z"/><path class="fil0" d="M82 98c9,-16 -1,-23 25,-44 4,-4 9,-7 11,-13 2,-4 29,-9 24,-14 -3,-2 -9,-3 -14,-2 -5,0 -11,4 -17,6 -12,3 -25,2 -26,4 -5,2 -9,4 -13,6 -15,4 -22,1 -29,19 -8,22 3,30 -1,48 0,3 -1,3 -2,6 -4,22 15,10 18,22 15,34 23,42 55,62 16,2 33,3 49,4 0,1 0,1 0,1 11,-6 21,-11 31,-16 1,-1 2,-2 3,-2 1,-1 1,-1 2,-2 -7,-17 -29,-38 -48,-44 -21,-6 -43,10 -57,-8 -5,-6 -9,-3 -15,0 -4,2 -10,4 -13,-2 -1,-2 -3,-3 -5,-4 -5,-2 -10,-1 -10,-8 1,-9 13,-6 15,-9 3,-6 13,-5 17,-10z"/><path class="fil0" d="M105 198c-25,-16 -38,-27 -48,-54 0,0 -3,-6 -3,-6 -4,-8 -11,-1 -17,-10 -3,-6 -2,-11 -1,-15 8,-20 -6,-25 3,-54 9,-27 25,-15 38,-25 7,-5 12,-12 18,-13 6,-1 9,-4 11,-6 -6,-1 -10,-6 -17,-4 -14,1 -15,10 -45,12 -22,2 -26,4 -32,24 -16,37 -9,22 -9,60 1,16 1,19 13,30 22,21 16,28 49,46 14,8 25,12 40,15z"/><path class="fil0" d="M188 78c0,-7 1,-21 -20,-31 -16,-8 -32,-5 -48,-1 0,0 2,-3 2,-3 1,-1 15,-8 30,-10 20,-2 28,5 36,15 5,6 6,15 7,24l-7 6z"/><path class="fil0" d="M154 104c-14,-5 -37,1 -56,-5 -16,-5 -9,5 -23,7 -6,1 -6,4 -10,6 -3,2 -9,2 -10,4 -3,5 8,5 10,7 1,0 4,3 4,3 8,9 15,-13 27,2 8,10 9,8 21,1l37 -25z"/><path class="fil0" d="M216 38c-1,-14 -13,-24 -14,-33 11,2 11,9 16,13 4,3 13,5 12,9 -3,7 -8,16 -9,23 -1,10 1,17 -2,25 -2,5 -3,5 -9,11 -4,8 -13,13 -35,15 -26,3 -8,17 -38,28 -7,1 -13,3 -19,4 24,-15 66,-47 80,-58 15,-13 19,-27 18,-37z"/><path class="fil0" d="M201 181l8 -8c3,-12 7,-21 10,-32 1,-15 -4,-32 1,-40 6,-8 13,-8 11,-24 -1,-13 3,-14 6,-25 1,-2 4,-15 -4,-21l-4 8c-9,17 0,28 -8,41 -2,4 -4,6 -8,9 -4,3 -4,9 -11,11 -25,9 -36,2 -40,13 -2,7 -12,17 -25,20 26,1 54,24 64,48z"/><path class="fil0" d="M89 29c4,-7 15,-6 21,-13 16,-5 23,-13 40,-12 24,2 34,-10 48,1 -1,12 20,27 13,45 -3,7 -6,13 -12,18 -2,-14 -8,-26 -21,-34 -9,-7 -21,-6 -32,-4 7,-6 -11,-15 -27,-6 -10,5 -23,7 -30,5z"/><path class="fil0" d="M106 97c1,-5 2,-13 4,-20 3,-7 11,-18 24,-21 8,-2 18,-1 27,5 10,7 10,17 13,28l10 -9c0,-17 -8,-26 -21,-30 -13,-6 -32,-6 -47,3 -12,6 -22,17 -27,36 0,2 0,4 -1,5 6,1 12,2 18,3z"/><path class="fil0" d="M116 74c-4,7 -6,16 -5,24 7,0 11,1 23,0 7,0 16,-1 24,4 4,-4 8,-7 12,-10 -2,-7 -2,-14 -5,-20 -1,-1 -2,-3 -3,-4 1,8 -1,16 -8,21 -5,3 -12,5 -18,5 -5,0 -9,-1 -13,-4 -4,-4 -6,-10 -7,-16z"/><path class="fil0" d="M134 60c-6,1 -11,4 -14,9 0,3 1,6 2,8 1,5 2,9 6,11 4,2 8,2 12,2 -5,-3 -11,-6 -13,-12 -1,-6 3,-13 7,-18z"/><path class="fil0" d="M153 61c0,4 -1,9 -4,12 -3,4 -8,8 -13,10 3,2 7,4 11,5 4,-2 7,-4 9,-8 3,-5 2,-11 1,-17 -1,-1 -3,-1 -4,-2z"/><path class="fil0" d="M145 72c0,1 -8,8 -13,7 -1,0 -2,-6 0,-9 4,-5 11,-4 13,2z"/><path class="fil0" d="M147 68c1,-3 2,-6 1,-9 0,0 -7,0 -8,0 -2,1 -3,3 -4,5 2,0 4,0 6,1 2,0 4,1 5,3z"/></g></svg>