<svg xmlns="http://www.w3.org/2000/svg" xmlns:xlink="http://www.w3.org/1999/xlink" version="1.1" x="0px" y="0px" viewBox="0 0 100 125" style="enable-background:new 0 0 100 100;" xml:space="preserve"><path d="M57,63.3c-9-4.8-5.2-10.2-5.2-10.2C60.1,53.5,57,63.3,57,63.3z M85.1,31c-0.7,2-1.4,4-2.1,6c3.7-1.4,8.3,0.6,9.8,4.3  c-1.5,1.6-4,2.3-6.1,1.7c-2.1-0.6-3.9-2.5-4.3-4.7c-1.7,2.9-3.9,5.5-6.5,7.7c3.4-0.5,7.1,1.9,7.9,5.2c-2.1,0.6-4.3,1.1-6.5,0.9  c-2.2-0.2-4.4-1.5-5.2-3.5c-2,0.9-4,1.8-6,2.7c1.3,1.1,1.8,2.9,1.7,4.6c-0.1,1.7-0.8,3.3-1.5,4.9c-2.6-1.9-4.2-5.2-4-8.5  c-5.8,1.1-11.7,0.7-17.7,0.4c7.2,7.5-0.6,11.6-0.6,11.6c-5.8-5.4-2.1-10.1-0.6-11.7c-2.1-0.1-4.2-0.2-6.4-0.2  c1.1,2.1,4.9,11-2.3,13.5c0,0-7.3-7.5,1.4-13.5c-2.7,0-5.4,0.2-8.1,0.7c2,2.1,5,6.8-0.4,12c0,0-7.9-6-3.8-11c-2.1,0.7-4.1,1.6-6,2.8  c3.3,1,8.4,3.9,4.9,13.1c0,0-10.2-3.2-8.6-10.4c-2.6,2.2-4.7,4.8-6.3,7.8C4.3,74.7,4.8,84,10,90.2c0.9,1.1,1.8,2.9,0.6,3.6  c-0.8,0.4-1.8-0.3-2.4-1c-5.4-6.1-7-15.2-4.4-22.9c1.9-5.8,5.9-10.9,11-14.3c-8.6-0.3-5.3-11.9-5.3-11.9c9.8,0,8.7,7.3,7.7,10.5  c1-0.5,1.9-1,2.9-1.4c1.5-0.6,3-1.1,4.6-1.6c-8.6-4.7-2.1-11.7-2.1-11.7c5.9,2.4,5.4,8.2,4.8,11.1c2.2-0.4,4.4-0.7,6.6-0.8  c-3.1-1.2-7.2-3.9-5.1-9.7c0,0,7.6-0.6,8,9.6c2.2,0,4.5,0.1,6.7,0.2c0.1,0,0.1,0,0.2,0c-5.3-4.4-0.1-9.8-0.1-9.8  c4.9,3.4,2.5,8.2,1.5,9.9c2.6,0.1,5.2,0.1,7.4-1.1c2.5-1.4,4-4.1,4.5-6.9c0.5-2.8,0.1-5.6-0.4-8.4c-2,2.7-5.2,4.5-8.6,4.6  c-0.5-3.8,3.2-7.7,7-7.2c-2.3-2.7-5.6-4.5-9.1-5.1c1.5,3.5-0.1,7.9-3.4,9.7c-0.6-1.8-1.1-3.6-1-5.4c0.1-1.9,1-3.8,2.6-4.6  c-2.1,0-4.1-0.1-6.2-0.1c1.7,1.8,1.7,4.8,0.5,6.9c-1.2,2.2-3.2,3.7-5.2,5.2c-2-3.7-1.4-8.5,1.4-11.6c-3.4-0.2-5.5,3.4-8.1,5.5  c-2.4,1.9-5.7,2.6-8.7,1.9c0.3-3.1,2.3-6,5.1-7.3c1.2-0.6,2.5-0.9,3.8-1.2c3.4-0.8,6.8-1.6,10.2-2.3c-3.9-1.3-5.9-6.5-4-10.2  c4.4,0.5,7.4,6.1,5.3,10c1.4,0,2.8,0,4.3-0.1c-1.3-4.2,2.5-9.1,6.9-8.9c0.3,3.7-1.6,7.4-4.8,9.3c1.6,0.4,3.2,0.7,4.9,1.1  c0.6-4.6,5.8-7.9,10.2-6.6c0,3.8-2.8,7.4-6.5,8.4c1.6,1,3,2.3,4.1,3.8c1.7-3.4,6.6-4.8,9.8-2.6c-1.1,3.4-4.9,5.7-8.4,5.1  c2.6,6.1,1.3,13.7-3.3,18.5c2.3-0.3,4.6-0.6,6.9-0.9c-2.7-3.1-2-8.4,1.3-10.7c3.6,1.6,4.4,7.3,1.4,9.9c3-0.9,5.8-2.3,8.1-4.3  c-2.1-0.3-4-1.8-4.8-3.8c-0.8-2-0.4-4.4,0.9-6.1c1.7,0.7,3.5,1.5,4.8,2.9c1.3,1.3,2.1,3.4,1.4,5.2c1.2-1.5,2.3-2.9,3.5-4.4  c-4.2-1.5-5.9-7.5-3.1-11c2.7,0.8,4.8,3.1,5.4,5.8c1-3.4,1.9-7.1,0.4-10.3c-0.6-1.3-1.6-2.4-2.3-3.7c-1.4-2.7-1.1-6.1,0.7-8.5  c2.4,0.5,4.1,2.7,4.8,5.1c0.4,1.3,0.4,2.7,0.3,4.1c-0.1,0.7-0.2,1.4-0.3,2.1c0,0.6,0.2,1.2,0.3,1.8c0.1,0.7,0.1,1.4,0.1,2.2  c0,0.3,0.1,1.9-0.1,2c3.1-1.7,6.9-1.7,10-0.1C93.5,30.9,88.9,32.5,85.1,31z M86.3,29.7c1.6-0.6,7.4-1.7,7.4-1.7  C90.7,26.8,85.5,30,86.3,29.7z M59.1,30c1.4-1.1,6.3-3,6.3-3C60.8,26.8,58.8,30.2,59.1,30z M28.8,26.5c-5.8-0.7-9,5.6-9,5.6  C23.2,28.3,28.8,26.5,28.8,26.5z M36.3,25.7c0,0-3.5,4-2.5,9.4C33.8,35.1,35.4,29,36.3,25.7z M37.6,20.8c-0.6-6.1-3.4-6.9-3.4-6.9  C34.6,16.9,37.6,20.8,37.6,20.8z M44.4,21.3c0,0,1.8-3.3,3.7-6.6C48,14.7,44.4,16.3,44.4,21.3z M44.9,26.5c0,0-2,2.2-1.7,7  C43.2,33.5,44.9,28.3,44.9,26.5z M58.3,18c-6.1,1.5-6.8,6.1-6.8,6.1C53,21.4,58.3,18,58.3,18z M54.8,32.2c-4.2,0.5-5,4.3-5,4.3  C50,35.6,54.8,32.2,54.8,32.2z M64.1,40.7c0,0-1.4,3.2-0.4,7.1C63.7,47.8,64.3,43.7,64.1,40.7z M64.8,52.6c0,0-0.7,2.7,1,5.6  C65.8,58.2,66.3,54.7,64.8,52.6z M74.3,42.9c-1.1-5.3-4.2-6.5-4.2-6.5C70.2,38.3,74.3,42.9,74.3,42.9z M74.9,47.9  c2.5,0.3,6.6,1.9,6.6,1.9C79.9,47.1,74.9,47.9,74.9,47.9z M79.7,35.7c0,0-1.7-5-2.5-6.4C77.2,29.3,76.1,32.7,79.7,35.7z M83.6,38.5  c0.5,1.5,7.6,2.7,7.6,2.7C90.1,39.4,83.6,38.5,83.6,38.5z M81,12.3c-0.4,0.9,2.5,8.1,2.5,8.1C84,15.2,81,12.3,81,12.3z M53,55  c0,0,0.5,3.9,2.8,6.1C55.8,61.1,54.9,56.9,53,55z M44,42.4c0,0-1.4,2,0.1,5.4C44.2,47.8,44.2,44.9,44,42.4z M44,54.5  c0,0-1.6,4.5,0.5,7.7C44.5,62.2,44.5,58.2,44,54.5z M36.3,55c0,0-3,3.9-1.3,9.1C34.9,64.1,35.6,56.3,36.3,55z M35.4,48.8  c-1.6-5.5-5.1-6.8-5.1-6.8C30.6,43.2,35.4,48.8,35.4,48.8z M23.1,42c0,0-1.4,4.6,2.7,7.8C25.9,49.8,22.9,44.2,23.1,42z M27.9,62.2  c0.8-4.6-1.4-7.7-1.4-7.7C26.2,56.5,27.9,62.2,27.9,62.2z M22.2,67.8c-0.4-5.4-5.7-8.7-5.7-8.7C18.8,61.8,22.2,67.8,22.2,67.8z   M15.7,53.1c-0.8-6-4.8-8-4.8-8C11.1,46.6,15.7,53.1,15.7,53.1z"/></svg>