<svg xmlns="http://www.w3.org/2000/svg" version="1.1" viewBox="-5.0 -10.0 110.0 135.0">
 <g>
  <path d="m18.5 79.348c-2.1211 0.37109-1.7969 3.6758 0.35547 3.6289 2.6328-0.050781 2.2344-4.0938-0.35547-3.6289z"/>
  <path d="m95.023 61.328c-0.82813-0.58203-1.9688-0.38672-2.5547 0.44141l-8.8164 12.492c-0.78125-0.28516-1.6289-0.44141-2.5078-0.44141-0.76172 0-1.4922 0.11719-2.1836 0.33203l-12.031-10.242 0.81641-28.516 11.219-9.543c0.69141 0.21484 1.4219 0.33203 2.1836 0.33203 0.88281 0 1.7266-0.15625 2.5078-0.44141l8.8164 12.492c0.35547 0.50781 0.92188 0.77734 1.4961 0.77734 0.36328 0 0.73438-0.10938 1.0547-0.33594 0.82812-0.58203 1.0234-1.7266 0.44141-2.5547l-8.793-12.461c1.1211-1.2891 1.8008-2.9688 1.8008-4.8047 0-4.0391-3.2852-7.3281-7.3281-7.3281-0.94531 0-1.8477 0.18359-2.6797 0.50781l-4.9844-7.0625c-0.58203-0.82812-1.7266-1.0234-2.5547-0.44141s-1.0234 1.7266-0.44141 2.5547l5.0117 7.1016c-0.42578 0.51562-0.78516 1.0938-1.0586 1.7109l-10.469 4.1914c-0.36328-0.45312-0.75-0.89453-1.1641-1.3164-3.3906-3.4922-7.9375-5.4141-12.805-5.4141s-9.4141 1.9219-12.805 5.4102c-0.41016 0.42188-0.80078 0.86328-1.1641 1.3164l-10.473-4.1875c-0.27344-0.62109-0.63281-1.1953-1.0586-1.7109l5.0117-7.1016c0.58203-0.82813 0.38672-1.9688-0.44141-2.5547-0.82812-0.58594-1.9688-0.38672-2.5547 0.44141l-4.9844 7.0625c-0.83203-0.32812-1.7344-0.50781-2.6797-0.50781-4.0391 0-7.3281 3.2852-7.3281 7.3281 0 1.8359 0.67969 3.5156 1.8008 4.8047l-8.7891 12.461c-0.58203 0.82812-0.38672 1.9688 0.44141 2.5547 0.32031 0.22656 0.69141 0.33594 1.0547 0.33594 0.57422 0 1.1406-0.26953 1.4961-0.77734l8.8164-12.492c0.78125 0.28516 1.6289 0.44141 2.5078 0.44141 0.76172 0 1.4922-0.11719 2.1836-0.33203l11.219 9.543 0.81641 28.516-12.031 10.238c-0.69141-0.21484-1.4219-0.33203-2.1836-0.33203-0.88281 0-1.7266 0.15625-2.5078 0.44141l-8.8203-12.492c-0.58203-0.82422-1.7266-1.0234-2.5547-0.44141-0.82812 0.58594-1.0234 1.7266-0.44141 2.5547l8.7969 12.457c-1.1211 1.2891-1.8008 2.9688-1.8008 4.8047 0 4.0391 3.2852 7.3281 7.3281 7.3281 0.94531 0 1.8477-0.18359 2.6797-0.50781l4.9844 7.0625c0.35547 0.50781 0.92188 0.77734 1.4961 0.77734 0.36328 0 0.73438-0.10938 1.0547-0.33594 0.82813-0.58203 1.0234-1.7266 0.44141-2.5547l-5.0117-7.1016c0.42578-0.51562 0.78516-1.0938 1.0586-1.7109l10.977-4.3906c1.2617 0.90625 2.8125 1.4336 4.4922 1.4336h17.941c1.6836 0 3.2344-0.53125 4.4922-1.4336l10.977 4.3906c0.27344 0.62109 0.63281 1.1953 1.0586 1.7109l-5.0117 7.1016c-0.58203 0.82812-0.38672 1.9688 0.44141 2.5547 0.32031 0.22656 0.69141 0.33594 1.0547 0.33594 0.57422 0 1.1406-0.26953 1.4961-0.77734l4.9844-7.0625c0.83203 0.32812 1.7344 0.50781 2.6797 0.50781 4.0391 0 7.3281-3.2852 7.3281-7.3281 0-1.8359-0.67969-3.5156-1.8008-4.8047l8.7969-12.461c0.58203-0.82031 0.38672-1.9648-0.44141-2.5469zm-10.215-42.473c0 2.0195-1.6445 3.6641-3.6641 3.6641s-3.6641-1.6445-3.6641-3.6641 1.6445-3.6641 3.6641-3.6641 3.6641 1.6445 3.6641 3.6641zm-20.621 12.766-1.1992 41.957c-0.03125 1.0352-0.44531 1.9648-1.1016 2.6562-0.054688 0.050781-0.10547 0.10156-0.15234 0.15625-0.67578 0.63672-1.5742 1.0352-2.5703 1.082l-0.003906-57.098c0.35156 0.29688 0.69141 0.61328 1.0156 0.94922 2.6953 2.7734 4.1211 6.4297 4.0117 10.297zm-23.348-11.246v57.094c-0.99609-0.046875-1.8945-0.44531-2.5703-1.082-0.046875-0.054688-0.097656-0.10547-0.15234-0.15625-0.65625-0.69141-1.0742-1.6211-1.1016-2.6562l-1.1992-41.957c-0.10938-3.8672 1.3125-7.5234 4.0078-10.297 0.32422-0.33203 0.66406-0.64453 1.0156-0.94531zm-25.648-1.5195c0-2.0195 1.6445-3.6641 3.6641-3.6641s3.6641 1.6445 3.6641 3.6641-1.6445 3.6641-3.6641 3.6641-3.6641-1.6445-3.6641-3.6641zm0 62.289c0-2.0195 1.6445-3.6641 3.6641-3.6641s3.6641 1.6445 3.6641 3.6641-1.6445 3.6641-3.6641 3.6641-3.6641-1.6445-3.6641-3.6641zm65.953 3.6641c-2.0195 0-3.6641-1.6445-3.6641-3.6641s1.6445-3.6641 3.6641-3.6641 3.6641 1.6445 3.6641 3.6641-1.6445 3.6641-3.6641 3.6641z"/>
  <path d="m80.785 79.348c-2.1211 0.37109-1.7969 3.6758 0.35547 3.6289 2.6328-0.050781 2.2383-4.0898-0.35547-3.6289z"/>
  <path d="m81.145 20.688c2.6328-0.050781 2.2344-4.0938-0.35547-3.6289-2.125 0.37109-1.7969 3.6797 0.35547 3.6289z"/>
  <path d="m19.215 17.062c-2.5898-0.46875-2.9883 3.5781-0.35547 3.6289 2.1484 0.046875 2.4766-3.2617 0.35547-3.6289z"/>
 </g></svg>