<svg xmlns="http://www.w3.org/2000/svg" xmlns:xlink="http://www.w3.org/1999/xlink" viewBox="0 0 100 125" version="1.1" x="0px" y="0px"><title>mountains-2</title><desc>Created with Sketch.</desc><g stroke="none" stroke-width="1" fill="none" fill-rule="evenodd"><path d="M89.3364616,17.1109642 L70.2342872,34.0946401 L80.666182,36.5333421 C81.7596325,36.7891085 82.1660829,38.1323772 81.3977926,38.951226 L81.3759831,38.9750182 C81.0091864,39.3665984 80.4689049,39.542066 79.9454762,39.4201309 L67.514044,36.5135153 L64.9058225,38.8322649 C64.2941643,39.3755205 63.3583372,39.3190139 62.8170643,38.7053731 L62.7952548,38.6815809 C62.2589386,38.073888 62.3154451,37.1459917 62.9211552,36.6076928 L72.2169718,28.3369242 L72.1763267,28.3408896 L71.2880841,18.4849646 C71.2256295,17.7840857 71.6608288,17.124843 72.3389069,16.9354967 L72.3676558,16.9275659 C73.2648206,16.6777477 74.1679334,17.301302 74.2521975,18.2291983 L74.9441544,25.915075 L87.4053268,14.8457471 C87.646223,14.6316172 87.9535391,14.5037341 88.274734,14.4829159 C88.2836561,14.4819245 88.2915868,14.4819245 88.3005089,14.4809332 C89.2234485,14.422444 89.9610072,15.2313793 89.8212279,16.1463882 C89.8162712,16.1800938 89.8113145,16.2147908 89.8053665,16.2494878 C89.754808,16.5805961 89.5872712,16.8879122 89.3364616,17.1109642 L89.3364616,17.1109642 Z M35.1090477,65.0919305 L32.5047915,62.7682242 L20.0584892,65.6778138 C19.5360518,65.7997489 18.9957703,65.6222986 18.6279823,65.2317097 L18.6051814,65.2079175 C17.8368912,64.3900601 18.2423501,63.0477827 19.3348093,62.7920164 L29.7815743,60.3503404 L10.6645298,43.3676558 C10.4137202,43.1446038 10.2471747,42.8392704 10.1956249,42.5071707 L10.1797634,42.3971317 C10.0399841,41.4870795 10.7775428,40.6821096 11.6965171,40.7405988 L11.7213006,40.7415901 C12.0415042,40.7624083 12.3488203,40.8902915 12.5887251,41.10343 L25.0548543,52.1866367 L25.7478025,44.4878726 C25.8310753,43.5609676 26.7351794,42.9364219 27.6323442,43.1862402 L27.6610931,43.1951622 C28.3381799,43.3845086 28.7743705,44.0427599 28.7109246,44.7436389 L27.8236733,54.5995638 L27.7632014,54.5946071 L37.0798361,62.8782632 C37.6815809,63.4125967 37.7400701,64.3325623 37.2087106,64.9362897 C37.2007799,64.9462032 37.1918578,64.9551252 37.183927,64.9640473 C36.6456282,65.5737228 35.7157491,65.6332034 35.1090477,65.0919305 L35.1090477,65.0919305 Z M92.2817395,10.0030401 C91.3469037,10.0099795 69.280616,10.2578151 60.8016655,17.8723151 C57.4162316,20.9147446 55.4176855,25.0922609 55.1738153,29.6365739 C54.9715815,33.4145793 56.0194303,37.0617276 58.1210759,40.132906 C55.833058,42.1958892 53.6332694,44.2043487 51.9469962,45.7508426 L51.9469962,6 L47.8497786,6 L47.8497786,71.8231445 C46.1922543,70.3044082 44.0727645,68.3702994 41.8789241,66.3925715 C43.9805697,63.3204018 45.0284185,59.6732536 44.8251933,55.8952482 C44.5823145,51.3509352 42.5837684,47.1734188 39.1973432,44.1319807 C30.7183927,36.5164893 8.65309629,36.2686538 7.71726918,36.2617144 L5,36.2428789 L5.22999141,38.9502346 C5.30731611,39.8553301 7.22258939,61.2128081 16.4272024,69.4815941 L16.4272024,69.4825854 C19.6758311,72.4001057 23.7472738,73.837552 27.8038464,73.837552 C31.901064,73.837552 35.9834115,72.3703655 39.1923865,69.4865508 C43.0050889,72.9265085 46.5709471,76.2098341 47.8497786,77.3905228 L47.8497786,94.5754411 L51.9469962,94.5754411 L51.9469962,51.3192122 C53.0216113,50.3268786 56.7857379,46.8561893 60.8105875,43.2249025 C63.6944022,45.8222193 67.3465072,47.3498777 71.276188,47.5610336 C71.5874694,47.5768951 71.8977596,47.5858172 72.209041,47.5858172 C76.414315,47.5858172 80.4193378,46.0551847 83.5727976,43.2239112 C92.778402,34.9541339 94.6926839,13.5966559 94.7700086,12.6915604 L95,9.98321327 L92.2817395,10.0030401 Z" fill="#000000"/></g></svg>